<?xml version="1.0" standalone="no"?>
<!DOCTYPE svg PUBLIC "-//W3C//DTD SVG 20010904//EN"
 "http://www.w3.org/TR/2001/REC-SVG-20010904/DTD/svg10.dtd">
<svg version="1.0" xmlns="http://www.w3.org/2000/svg"
 width="167.000000pt" height="193.000000pt" viewBox="0 0 167.000000 193.000000"
 preserveAspectRatio="xMidYMid meet">
<metadata>
Created by potrace 1.15, written by Peter Selinger 2001-2017
</metadata>
<g transform="translate(0.000000,193.000000) scale(0.100000,-0.100000)"
fill="#000000" stroke="none">
<path d="M1090 1602 l0 -327 -205 -189 -204 -188 51 -59 c29 -32 57 -59 63
-59 7 0 74 58 151 129 l139 128 6 -236 c4 -130 7 -363 8 -518 l1 -283 80 0 80
0 0 599 0 599 203 187 c111 103 203 190 205 195 4 10 -97 120 -110 120 -5 0
-73 -59 -151 -132 l-142 -132 -3 247 -2 247 -85 0 -85 0 0 -328z"/>
<path d="M619 1346 l-254 -234 -3 64 -3 64 -79 0 -80 0 0 -139 0 -139 -100
-94 -100 -93 56 -63 56 -63 44 36 44 36 0 -360 0 -361 80 0 80 0 0 438 0 437
266 245 c146 135 288 266 317 291 l51 46 -53 61 c-30 34 -57 62 -61 62 -4 0
-122 -105 -261 -234z"/>
</g>
</svg>
