<?xml version="1.0" standalone="no"?>
<!DOCTYPE svg PUBLIC "-//W3C//DTD SVG 1.1//EN" "http://www.w3.org/Graphics/SVG/1.1/DTD/svg11.dtd" >
<svg xmlns="http://www.w3.org/2000/svg" xmlns:xlink="http://www.w3.org/1999/xlink" version="1.1">
<metadata></metadata>
<defs>
<font id="tt_chocolatesbold" horiz-adv-x="1085" >
<font-face units-per-em="2048" ascent="1638" descent="-410" />
<missing-glyph horiz-adv-x="409" />
<glyph horiz-adv-x="0" />
<glyph horiz-adv-x="682" />
<glyph horiz-adv-x="0" />
<glyph horiz-adv-x="0" />
<glyph unicode="&#xd;" horiz-adv-x="0" />
<glyph unicode=" "  horiz-adv-x="409" />
<glyph unicode="&#x09;" horiz-adv-x="409" />
<glyph unicode="&#xa0;" horiz-adv-x="409" />
<glyph unicode="!" horiz-adv-x="552" d="M133 1393h287l-41 -942h-205zM143 113q0 54 39.5 93.5t93.5 39.5t94 -39.5t40 -93.5t-40 -93.5t-94 -39.5t-93.5 39.5t-39.5 93.5z" />
<glyph unicode="&#x22;" horiz-adv-x="727" d="M82 1393h225l-41 -451h-143zM420 1393h225l-41 -451h-143z" />
<glyph unicode="#" horiz-adv-x="1320" d="M20 348l72 225h195l82 246h-195l72 225h194l113 349h246l-113 -349h174l113 349h246l-113 -349h194l-71 -225h-195l-82 -246h195l-72 -225h-194l-113 -348h-246l113 348h-174l-113 -348h-246l113 348h-195zM532 573h175l81 246h-174z" />
<glyph unicode="$" horiz-adv-x="1116" d="M51 246l185 133q5 -8 13.5 -21t37.5 -46.5t61 -59.5t82 -47t102 -21q105 0 175.5 64t70.5 151q0 49 -35 89.5t-91 70t-123.5 58.5t-135.5 66t-124 83t-91 117.5t-35 160.5q0 126 89.5 227.5t218.5 141.5v225h245v-215q60 -14 115 -42.5t90.5 -59t62 -59t38.5 -46.5 l12 -18l-185 -133q-4 6 -11.5 15.5t-32 34t-49.5 43.5t-61.5 34.5t-70.5 15.5q-91 0 -148 -53t-57 -131q0 -49 35 -89.5t91 -70t123.5 -58.5t135.5 -66t124 -83t91 -117.5t35 -160.5q0 -142 -93 -247.5t-245 -154.5v-223h-245v213q-77 12 -147 45t-114 72t-77 76t-47 62z " />
<glyph unicode="%" horiz-adv-x="1464" d="M41 1116q0 131 93.5 224.5t223.5 93.5t224 -94t94 -224t-93.5 -223.5t-224.5 -93.5q-130 0 -223.5 93.5t-93.5 223.5zM225 0l758 1393h256l-758 -1393h-256zM246 1116q0 -60 32.5 -96.5t79.5 -36.5t80 36.5t33 96.5t-33 96.5t-80 36.5t-79.5 -36.5t-32.5 -96.5zM788 276 q0 130 94 224t224 94t223.5 -93.5t93.5 -224.5q0 -130 -93.5 -223.5t-223.5 -93.5q-131 0 -224.5 93.5t-93.5 223.5zM993 276q0 -60 33 -96.5t80 -36.5t80 36.5t33 96.5t-33 97t-80 37t-80 -37t-33 -97z" />
<glyph unicode="&#x26;" horiz-adv-x="1341" d="M61 369q0 74 29.5 141.5t71.5 111t84.5 75.5t71.5 47l30 14v20q-26 28 -52.5 66.5t-53.5 110t-27 141.5q0 140 103 239t255 99t255.5 -99t103.5 -239q0 -60 -25.5 -117t-61.5 -95.5t-72 -68t-61 -43.5l-26 -14v-21l236 -266q6 10 14.5 28.5t22.5 72.5t14 104h225 q0 -66 -12.5 -129.5t-31 -106.5t-36.5 -77t-30 -50l-13 -16l266 -297h-307l-102 113h-21q-5 -6 -15.5 -16.5t-47 -37t-77 -47t-105.5 -37t-134 -16.5q-210 0 -340.5 118.5t-130.5 291.5zM307 369q0 -79 64 -137t161 -58q40 0 80 11.5t68.5 28t51.5 33.5t34 29l12 11 l-286 327q-8 -4 -20 -12t-44 -33t-56.5 -52t-44.5 -67.5t-20 -80.5zM451 1096q0 -50 23 -101.5t46 -77.5l23 -26q6 4 16.5 10.5t37 28.5t46.5 45t36.5 56t16.5 65q0 46 -38.5 84.5t-84.5 38.5t-84 -38.5t-38 -84.5z" />
<glyph unicode="'" horiz-adv-x="389" d="M82 1393h225l-41 -451h-143z" />
<glyph unicode="(" horiz-adv-x="737" d="M123 512q0 125 24.5 249.5t63 222.5t85.5 188t94 155t85.5 113t62.5 72l25 24l154 -123q-8 -9 -20.5 -24.5t-50 -67.5t-71.5 -107.5t-75.5 -140t-71 -168t-50 -188.5t-20.5 -205t20 -204t51.5 -190t70 -166.5t76.5 -141t69.5 -106.5t51.5 -70l20 -23l-154 -123l-25 25 t-61.5 70.5t-87 114.5t-92.5 153t-87.5 189.5t-61.5 221.5t-25 250z" />
<glyph unicode=")" horiz-adv-x="737" d="M20 -389q8 9 20.5 24.5t50 67.5t71.5 107.5t75.5 140t71 168t50 188.5t20.5 205q0 138 -37 281.5t-89.5 249.5t-105.5 193t-90 132l-37 45l154 123l25 -25t61.5 -70.5t87 -114.5t92.5 -153t87.5 -189.5t61.5 -221.5t25 -250t-24.5 -249.5t-63 -222.5t-85.5 -188t-94 -155 t-85.5 -113t-63.5 -72l-24 -24z" />
<glyph unicode="*" horiz-adv-x="696" d="M61 1137l45 131l170 -60v185h144v-185l170 60l45 -131l-174 -62l112 -143l-122 -82l-103 143l-102 -143l-123 82l113 143z" />
<glyph unicode="+" horiz-adv-x="860" d="M61 451v204h267v297h204v-297h267v-204h-267v-297h-204v297h-267z" />
<glyph unicode="," horiz-adv-x="409" d="M72 113q0 54 39.5 93.5t93.5 39.5t93.5 -39.5t39.5 -93.5q0 -23 -10 -51t-20 -45l-11 -17l-123 -215h-92l82 215q-4 1 -10 3t-22 10.5t-28 20t-22 32.5t-10 47z" />
<glyph unicode="-" horiz-adv-x="819" d="M61 451v204h697v-204h-697z" />
<glyph unicode="." horiz-adv-x="409" d="M72 113q0 54 39.5 93.5t93.5 39.5t93.5 -39.5t39.5 -93.5t-39.5 -93.5t-93.5 -39.5t-93.5 39.5t-39.5 93.5z" />
<glyph unicode="/" horiz-adv-x="901" d="M41 0l553 1393h266l-553 -1393h-266z" />
<glyph unicode="0" horiz-adv-x="1290" d="M113 696q0 175 44 317.5t118.5 233t169.5 139t200 48.5q83 0 161 -30t145.5 -91.5t118 -148.5t79.5 -207.5t29 -260.5t-29 -260.5t-79.5 -207t-118 -148t-145.5 -91.5t-161 -30t-161 30t-145.5 91.5t-117.5 148t-79 207t-29 260.5zM369 696q0 -133 24 -235t64.5 -160.5 t88 -87.5t99.5 -29q41 0 80 17.5t75 57t63 97.5t43 145.5t16 194.5t-16 194.5t-43 145.5t-63 97.5t-75 57t-80 17.5q-52 0 -99.5 -29t-88 -87.5t-64.5 -160.5t-24 -235z" />
<glyph unicode="1" horiz-adv-x="860" d="M41 1137l512 297h41v-1209h194v-225h-634v225h194v840h-20l-185 -102z" />
<glyph unicode="2" horiz-adv-x="1054" d="M51 1167q5 11 16 29t52.5 64t90.5 81t133 64t179 29q191 0 326 -133t135 -318q0 -79 -28 -162.5t-73.5 -154t-100 -136.5t-109 -116.5t-100 -89t-73.5 -58.5l-28 -20v-21h512v-225h-911v164q14 9 37.5 26t91.5 71t130 109.5t137.5 135t129.5 154t91.5 161.5t37.5 162 q0 92 -66.5 158.5t-158.5 66.5q-49 0 -94 -18t-75 -43.5t-53 -51t-34 -43.5l-10 -18z" />
<glyph unicode="3" horiz-adv-x="1095" d="M41 246l184 133q5 -8 13.5 -21t38 -46.5t61.5 -59.5t82 -47t102 -21q106 0 176 66t70 160t-70 159.5t-176 65.5h-215v164l328 348v20h-512v226h860v-164l-348 -369v-20q8 -1 22 -4t54.5 -16.5t77 -32t81.5 -53.5t77.5 -77.5t54.5 -107t22 -139.5q0 -91 -36.5 -174 t-100 -144t-153.5 -97t-191 -36q-71 0 -137 16t-115 41t-91.5 55.5t-71 61.5t-48.5 56t-30 41z" />
<glyph unicode="4" horiz-adv-x="1157" d="M41 287v164l737 983h144v-922h163v-225h-163v-287h-246v287h-635zM379 512h297v389h-21l-276 -369v-20z" />
<glyph unicode="5" horiz-adv-x="1126" d="M72 246l184 133q5 -8 13.5 -21t38 -46.5t61.5 -59.5t82 -47t102 -21q106 0 176 68t70 168t-69.5 167.5t-176.5 67.5q-45 0 -101.5 -17.5t-89.5 -35.5l-34 -18l-164 102v707h809v-226h-563v-327q81 41 163 41q206 0 344 -134t138 -327t-138 -327t-344 -134 q-97 0 -184.5 29.5t-143 71.5t-96.5 84.5t-59 71.5z" />
<glyph unicode="6" horiz-adv-x="1146" d="M92 451q0 63 15 128.5t36 113.5t42 87t36 60l15 20l348 533h266l-348 -523h20q7 6 19.5 14.5t50.5 23t74 14.5q102 0 196 -61.5t153.5 -171t59.5 -238.5q0 -207 -142 -349.5t-349 -142.5t-349.5 142.5t-142.5 349.5zM348 451q0 -121 67 -194t169 -73t168.5 73t66.5 194 t-66.5 193.5t-168.5 72.5t-169 -72.5t-67 -193.5z" />
<glyph unicode="7" horiz-adv-x="983" d="M51 1167v226h881v-164l-461 -1229h-256l430 1147v20h-594z" />
<glyph unicode="8" horiz-adv-x="1187" d="M92 379q0 61 15.5 113.5t39.5 88t53.5 64t59.5 45.5t54 28t40 15l15 4v21q-9 3 -24.5 10t-54.5 33.5t-68.5 58.5t-54 87t-24.5 118q0 73 32 140t89.5 118t143 81t186.5 30q134 0 238 -52t158 -135.5t54 -181.5q0 -46 -12.5 -87.5t-32.5 -71.5t-43.5 -56t-47.5 -42.5 t-44 -28t-32 -16.5l-13 -5v-21q6 -1 16 -4t38.5 -15t55 -28t58.5 -45.5t54.5 -64.5t38.5 -87.5t16 -113.5q0 -80 -37 -156t-102 -134.5t-160 -94t-203 -35.5t-203 35.5t-160 94t-102 134.5t-37 156zM348 410q0 -94 70 -160t176 -66t176 66t70 160t-70 159.5t-176 65.5 t-176 -65.5t-70 -159.5zM399 1034q0 -71 56 -122.5t139 -51.5t138.5 51.5t55.5 122.5t-55.5 122.5t-138.5 51.5t-139 -51.5t-56 -122.5z" />
<glyph unicode="9" horiz-adv-x="1148" d="M74 942q0 207 142 349.5t349 142.5t349.5 -142.5t142.5 -349.5q0 -63 -15 -128.5t-36 -113.5t-42 -87.5t-36 -60.5l-15 -20l-348 -532h-266l348 522h-20q-7 -6 -19.5 -14.5t-50.5 -22.5t-74 -14q-102 0 -196 61.5t-153.5 171t-59.5 238.5zM330 942q0 -121 66.5 -193.5 t168.5 -72.5t169 72.5t67 193.5t-67 193.5t-169 72.5t-168.5 -72.5t-66.5 -193.5z" />
<glyph unicode=":" horiz-adv-x="409" d="M72 113q0 54 39.5 93.5t93.5 39.5t93.5 -39.5t39.5 -93.5t-39.5 -93.5t-93.5 -39.5t-93.5 39.5t-39.5 93.5zM72 727q0 54 39.5 93.5t93.5 39.5t93.5 -39.5t39.5 -93.5t-39.5 -93.5t-93.5 -39.5t-93.5 39.5t-39.5 93.5z" />
<glyph unicode=";" horiz-adv-x="409" d="M72 113q0 54 39.5 93.5t93.5 39.5t93.5 -39.5t39.5 -93.5q0 -23 -10 -51t-20 -45l-11 -17l-123 -215h-92l82 215q-4 1 -10 3t-22 10.5t-28 20t-22 32.5t-10 47zM72 727q0 54 39.5 93.5t93.5 39.5t93.5 -39.5t39.5 -93.5t-39.5 -93.5t-93.5 -39.5t-93.5 39.5t-39.5 93.5z " />
<glyph unicode="&#x3c;" horiz-adv-x="839" d="M72 317v205l676 297v-225l-400 -164v-20l400 -164v-226z" />
<glyph unicode="=" horiz-adv-x="839" d="M82 246v205h676v-205h-676zM82 635v205h676v-205h-676z" />
<glyph unicode="&#x3e;" horiz-adv-x="839" d="M92 20v226l400 164v20l-400 164v225l676 -297v-205z" />
<glyph unicode="?" horiz-adv-x="1003" d="M20 1178q6 10 17.5 27.5t53.5 61.5t91 78t129.5 61.5t169.5 27.5q93 0 178 -34t144 -89t94 -128t35 -149q0 -60 -19 -113.5t-50 -93t-68 -76t-74 -70.5t-68 -67.5t-50 -75.5t-19 -87h-226q0 72 23.5 134.5t59 104.5t76.5 83.5t76.5 73.5t59 73t23.5 84q0 85 -61.5 144.5 t-153.5 59.5q-43 0 -85.5 -17t-72 -41t-52.5 -48t-35 -41l-11 -17zM338 113q0 54 39.5 93.5t93.5 39.5t93.5 -39.5t39.5 -93.5t-39.5 -93.5t-93.5 -39.5t-93.5 39.5t-39.5 93.5z" />
<glyph unicode="@" horiz-adv-x="1904" d="M113 594q0 174 65.5 329.5t177 267.5t267 177.5t329.5 65.5q184 0 342.5 -59.5t266.5 -160t169.5 -235t61.5 -283.5q0 -112 -32 -206t-86 -155.5t-124 -95.5t-147 -34q-52 0 -96 12.5t-70.5 30.5t-45.5 36.5t-27 31.5l-7 12h-20q-3 -5 -8 -13.5t-24.5 -29.5t-43 -37 t-64 -29.5t-86.5 -13.5q-135 0 -231 108.5t-96 280.5t96 280.5t231 108.5q26 0 50 -8.5t40.5 -20.5t29 -24t18.5 -20l6 -9h20v41h225v-430q0 -38 32.5 -70t70.5 -32q54 0 103.5 76t49.5 210q0 103 -46 200t-125 170.5t-192.5 118t-240.5 44.5q-121 0 -232.5 -49.5 t-193 -133.5t-130 -202.5t-48.5 -249.5t48.5 -249.5t130 -202.5t193 -133.5t232.5 -49.5q91 0 183.5 20.5t138.5 40.5l47 21l82 -184l-22 -11t-60 -25t-95.5 -31.5t-124.5 -24.5t-149 -11q-174 0 -329.5 65.5t-267 177.5t-177 267.5t-65.5 329.5zM819 594q0 -88 38 -136 t95 -48q46 0 84.5 38t38.5 84v123q0 46 -38.5 84.5t-84.5 38.5q-57 0 -95 -48t-38 -136z" />
<glyph unicode="A" horiz-adv-x="1310" d="M41 0l604 1475h21l604 -1475h-266l-82 205h-535l-80 -205h-266zM481 430h348l-163 430h-21z" />
<glyph unicode="B" horiz-adv-x="1228" d="M174 0v1393h440q207 0 329 -102t122 -247q0 -46 -12.5 -86t-32.5 -67.5t-44 -49.5t-47.5 -35.5t-43.5 -22t-33 -11.5l-12 -4v-20q6 -1 17.5 -3.5t43 -14t60.5 -26.5t64.5 -43t61 -62.5t43 -86.5t17.5 -113q0 -77 -36 -149t-100.5 -127.5t-162.5 -89t-213 -33.5h-461z M420 225h215q113 0 179.5 57.5t66.5 147.5t-66.5 147.5t-179.5 57.5h-215v-410zM420 860h194q89 0 142 45t53 109t-53 108.5t-142 44.5h-194v-307z" />
<glyph unicode="C" horiz-adv-x="1454" d="M82 696q0 151 58 288t155.5 235.5t232 156.5t281.5 58q84 0 162 -18t135.5 -47t108 -64t84 -70t58 -64t35.5 -47l11 -18l-215 -123q-5 9 -15.5 24t-47 54t-77 68.5t-105.5 54t-134 24.5q-122 0 -230.5 -67.5t-174.5 -186t-66 -258.5t66 -258.5t174.5 -186t230.5 -67.5 q74 0 142.5 26.5t113.5 64t78.5 75t48.5 64.5l16 26l215 -123q-4 -7 -11.5 -20t-35 -50.5t-59.5 -71t-85.5 -75t-112.5 -71t-140.5 -50t-169.5 -20.5q-147 0 -281.5 58t-232 156.5t-155.5 235t-58 287.5z" />
<glyph unicode="D" horiz-adv-x="1372" d="M174 0v1393h410q143 0 274 -56t225.5 -150t150.5 -222.5t56 -268.5t-56 -268.5t-150.5 -222t-225.5 -149.5t-274 -56h-410zM420 225h164q178 0 314 140.5t136 330.5t-136 330.5t-314 140.5h-164v-942z" />
<glyph unicode="E" d="M174 0v1393h809v-226h-563v-348h399v-225h-399v-369h584v-225h-830z" />
<glyph unicode="F" horiz-adv-x="1054" d="M174 0v1393h830v-226h-584v-440h420v-225h-420v-502h-246z" />
<glyph unicode="G" horiz-adv-x="1546" d="M82 696q0 151 58 288t155.5 235.5t232 156.5t281.5 58q81 0 157.5 -17.5t133 -45.5t106.5 -62t83.5 -68t57.5 -62t35 -45l11 -18l-205 -123q-5 9 -15.5 23.5t-47 51.5t-77 65.5t-105.5 51.5t-134 23q-122 0 -230.5 -67.5t-174.5 -186t-66 -258.5t66 -258.5t174.5 -186 t230.5 -67.5q59 0 111 13.5t89.5 36t69.5 51.5t53 61t37.5 64.5t25.5 61.5t14.5 51.5t7.5 36.5l2 13h245v-614h-41l-143 205h-20q-3 -4 -8 -11.5t-24 -29t-42 -40.5t-62 -43t-82.5 -41t-104.5 -28.5t-128 -11.5q-147 0 -281.5 58t-232 156.5t-155.5 235t-58 287.5z" />
<glyph unicode="H" horiz-adv-x="1392" d="M174 0v1393h246v-635h553v635h246v-1393h-246v532h-553v-532h-246z" />
<glyph unicode="I" horiz-adv-x="593" d="M174 0v1393h246v-1393h-246z" />
<glyph unicode="J" horiz-adv-x="931" d="M41 72l102 186q9 -8 25.5 -20.5t62 -33t86.5 -20.5q87 0 146 65.5t59 170.5v747h-358v226h604v-973q0 -205 -121.5 -333t-308.5 -128q-55 0 -105.5 11.5t-84 28t-59 33.5t-37.5 28z" />
<glyph unicode="K" horiz-adv-x="1218" d="M174 0v1393h246v-1393h-246zM471 737l410 656h266l-420 -656l461 -737h-266z" />
<glyph unicode="L" horiz-adv-x="1024" d="M174 0v1393h246v-1168h543v-225h-789z" />
<glyph unicode="M" horiz-adv-x="1679" d="M174 0v1434h41l625 -768l624 768h41v-1434h-245v799h-21l-399 -492l-400 492h-20v-799h-246z" />
<glyph unicode="N" horiz-adv-x="1392" d="M174 0v1434h41l737 -861h21v820h246v-1434h-41l-738 860h-20v-819h-246z" />
<glyph unicode="O" horiz-adv-x="1617" d="M82 696q0 151 58 288t155.5 235.5t232 156.5t281.5 58t281.5 -58t232 -156.5t155.5 -235.5t58 -288t-58 -287.5t-155.5 -235t-232 -156.5t-281.5 -58t-281.5 58t-232 156.5t-155.5 235t-58 287.5zM338 696q0 -140 66 -258.5t174.5 -186t230.5 -67.5t230.5 67.5t174.5 186 t66 258.5t-66 258.5t-174.5 186t-230.5 67.5t-230.5 -67.5t-174.5 -186t-66 -258.5z" />
<glyph unicode="P" horiz-adv-x="1198" d="M174 0v1393h379q124 0 230 -39.5t178.5 -106.5t113.5 -157t41 -189t-41 -188.5t-113.5 -156.5t-178.5 -106.5t-230 -39.5h-133v-410h-246zM420 635h133q135 0 221 78t86 188t-86 188t-221 78h-133v-532z" />
<glyph unicode="Q" horiz-adv-x="1638" d="M82 696q0 151 58 288t155.5 235.5t232 156.5t281.5 58t281.5 -58t232 -156.5t155.5 -235.5t58 -288q0 -89 -20 -173t-49 -141t-57.5 -101t-48.5 -65l-20 -21l236 -359h-287l-133 215q-6 -4 -17 -10t-46.5 -22t-73.5 -28t-96 -22t-115 -10q-147 0 -281.5 58t-232 156.5 t-155.5 235t-58 287.5zM338 696q0 -140 66 -258.5t174.5 -186t230.5 -67.5t230.5 67.5t174.5 186t66 258.5t-66 258.5t-174.5 186t-230.5 67.5t-230.5 -67.5t-174.5 -186t-66 -258.5z" />
<glyph unicode="R" horiz-adv-x="1280" d="M174 0v1393h471q112 0 209 -36t162.5 -96t103 -140.5t37.5 -168.5q0 -72 -24 -136t-58.5 -105.5t-69.5 -71t-59 -43.5t-24 -12v-21l317 -563h-266l-287 512h-266v-512h-246zM420 737h225q113 0 184.5 63.5t71.5 151.5t-72 151.5t-184 63.5h-225v-430z" />
<glyph unicode="S" horiz-adv-x="1116" d="M51 246l185 133q5 -8 13.5 -21t37.5 -46.5t61 -59.5t82 -47t102 -21q105 0 175.5 64t70.5 151q0 49 -35 89.5t-91 70t-123.5 58.5t-135.5 66t-124 83t-91 117.5t-35 160.5q0 97 58 186.5t161 146.5t222 57q80 0 154 -24.5t122 -59t84.5 -69t53.5 -59.5l16 -24l-185 -133 q-4 6 -11.5 15.5t-32 34t-49.5 43.5t-61.5 34.5t-70.5 15.5q-91 0 -148 -53t-57 -131q0 -49 35 -89.5t91 -70t123.5 -58.5t135.5 -66t124 -83t91 -117.5t35 -160.5q0 -80 -37 -156t-99.5 -134.5t-153 -94t-191.5 -35.5q-71 0 -137 16t-115 41t-91.5 55.5t-71 61.5t-48.5 56 t-30 41z" />
<glyph unicode="T" horiz-adv-x="1064" d="M51 1167v226h963v-226h-359v-1167h-245v1167h-359z" />
<glyph unicode="U" horiz-adv-x="1351" d="M164 481v912h246v-912q0 -128 78 -212.5t188 -84.5t188 84.5t78 212.5v912h246v-912q0 -146 -68 -266t-185 -188t-259 -68t-259 68t-185 188t-68 266z" />
<glyph unicode="V" horiz-adv-x="1269" d="M41 1393h266l318 -840h20l318 840h266l-584 -1475h-20z" />
<glyph unicode="W" horiz-adv-x="1802" d="M41 1393h266l256 -779h21l317 840l318 -840h20l256 779h266l-501 -1465h-21l-338 891l-338 -891h-20z" />
<glyph unicode="X" horiz-adv-x="1249" d="M41 0l420 727l-369 666h266l256 -461h21l256 461h266l-369 -666l420 -727h-276l-297 522h-21l-297 -522h-276z" />
<glyph unicode="Y" horiz-adv-x="1187" d="M20 1393h277l287 -584h20l287 584h276l-450 -901v-492h-246v492z" />
<glyph unicode="Z" horiz-adv-x="1095" d="M51 0v41l604 1106v20h-553v226h942v-41l-604 -1106v-21h584v-225h-973z" />
<glyph unicode="[" horiz-adv-x="675" d="M184 -440v1915h451v-226h-205v-1464h205v-225h-451z" />
<glyph unicode="\" horiz-adv-x="901" d="M41 1393h266l553 -1393h-266z" />
<glyph unicode="]" horiz-adv-x="675" d="M41 -215h205v1464h-205v226h451v-1915h-451v225z" />
<glyph unicode="^" horiz-adv-x="880" d="M82 778l256 615h205l256 -615h-226l-122 307h-21l-123 -307h-225z" />
<glyph unicode="_" horiz-adv-x="733" d="M18 -205h697v-205h-697v205z" />
<glyph unicode="`" horiz-adv-x="491" d="M61 1219l82 174l287 -174l-61 -134z" />
<glyph unicode="a" horiz-adv-x="952" d="M51 246q0 128 94.5 207t253.5 79q55 0 108.5 -10t80.5 -20l26 -10q0 76 -52 130t-122 54q-45 0 -88.5 -18t-64.5 -36l-21 -18l-133 154q4 5 12 13.5t37 29.5t61.5 37t86 29.5t110.5 13.5q168 0 284 -113.5t116 -275.5v-492h-226v82h-20q-3 -5 -9 -13.5t-27 -29.5t-46 -37 t-66.5 -29.5t-87.5 -13.5q-136 0 -221.5 81.5t-85.5 205.5zM287 246q0 -34 34 -58t99 -24q43 0 79 16t56.5 38t34.5 44.5t19 38.5l5 16q-92 11 -215 11q-51 0 -81.5 -24.5t-30.5 -57.5z" />
<glyph unicode="b" horiz-adv-x="1095" d="M143 0v1393h226v-635h20q3 5 9 13.5t28.5 29.5t49 37t72 29.5t97.5 13.5q73 0 143 -35t124.5 -95t88 -147t33.5 -184t-33.5 -184t-88 -147t-124.5 -95t-143 -35q-52 0 -97 12.5t-73 30.5t-48.5 36.5t-28.5 31.5l-9 12h-20v-82h-226zM369 379q0 -85 65 -150t150 -65 q88 0 151.5 72t63.5 184t-63.5 184t-151.5 72q-85 0 -150 -65t-65 -150v-82z" />
<glyph unicode="c" horiz-adv-x="972" d="M72 420q0 192 134 326.5t326 134.5q77 0 145.5 -23.5t111.5 -56.5t74.5 -66t44.5 -57l14 -23l-195 -102q-3 5 -7.5 13.5t-22.5 29.5t-39 37t-55 29.5t-71 13.5q-87 0 -156 -75.5t-69 -180.5t69 -180.5t156 -75.5q40 0 76 14.5t58.5 35.5t39.5 42.5t24 35.5l7 15l195 -102 q-5 -10 -14 -26.5t-44 -59t-77 -75t-113.5 -59t-151.5 -26.5q-192 0 -326 134.5t-134 326.5z" />
<glyph unicode="d" horiz-adv-x="1105" d="M72 420q0 97 33.5 184t88 147t124.5 95t143 35q52 0 97 -12.5t73 -30.5t48.5 -36.5t28.5 -31.5l9 -12h20v635h226v-1393h-226v82h-20q-3 -5 -9 -13.5t-28.5 -29.5t-49 -37t-72 -29.5t-97.5 -13.5q-73 0 -143 35t-124.5 95t-88 147t-33.5 184zM307 420q0 -112 63.5 -184 t151.5 -72q85 0 150 65t65 150v82q0 85 -65 150t-150 65q-88 0 -151.5 -72t-63.5 -184z" />
<glyph unicode="e" horiz-adv-x="1034" d="M72 420q0 192 134 326.5t326 134.5q121 0 222.5 -61t160 -165t58.5 -225l-92 -92h-564q25 -73 83.5 -123.5t131.5 -50.5q40 0 76 12.5t58.5 31t39.5 36.5t24 30l7 13l195 -103q-5 -9 -14 -24t-44 -54t-77 -68.5t-113.5 -54t-151.5 -24.5q-192 0 -326 134.5t-134 326.5z M328 522h409q-69 154 -205 154q-135 0 -204 -154z" />
<glyph unicode="f" horiz-adv-x="655" d="M41 635v205h133v297q0 145 93 241.5t225 96.5q50 0 96 -13t67 -26l21 -13l-72 -194q-41 41 -92 41q-47 0 -80 -36.5t-33 -96.5v-297h215v-205h-215v-635h-225v635h-133z" />
<glyph unicode="g" horiz-adv-x="993" d="M41 -276q0 43 16 84t38.5 69t45 49.5t38.5 31.5l16 11v21q-3 2 -8.5 5t-20 14.5t-25 24.5t-19.5 34.5t-9 44.5t8.5 44t20.5 35t24 24.5t20 15.5l9 4v20q-4 3 -11 9t-25 27t-31.5 46t-24.5 66.5t-11 87.5q0 142 113.5 245t286.5 103h460v-205h-112v-21q6 -7 14.5 -19.5 t22.5 -50t14 -73.5q0 -128 -114 -228t-285 -100q-23 0 -51 3.5t-45 6.5l-17 3q-5 -1 -11.5 -4.5t-18 -17.5t-11.5 -32t10 -31t20 -17l11 -3q62 10 113 10q206 0 328 -99.5t122 -237.5t-122 -238t-328 -100t-328.5 100t-122.5 238zM276 -276q0 -51 58 -92.5t158 -41.5 t157.5 41.5t57.5 92.5t-57.5 92t-157.5 41t-158 -41t-58 -92zM328 492q0 -56 48.5 -100t115.5 -44t115 44t48 100t-48 99.5t-115 43.5t-115.5 -44t-48.5 -99z" />
<glyph unicode="h" horiz-adv-x="1075" d="M143 0v1393h226v-635h20q3 5 9 13.5t27 29.5t46 37t66.5 29.5t87.5 13.5q133 0 235.5 -109t102.5 -260v-512h-226v512q0 70 -49 117t-125 47q-75 0 -134.5 -55.5t-59.5 -118.5v-502h-226z" />
<glyph unicode="i" horiz-adv-x="471" d="M102 1260q0 54 40 93.5t94 39.5t93.5 -39.5t39.5 -93.5t-39.5 -94t-93.5 -40t-94 40t-40 94zM123 0v840h225v-840h-225z" />
<glyph unicode="j" horiz-adv-x="481" d="M-143 -543l71 195q41 -41 92 -41q47 0 80 36.5t33 96.5v1096h225v-1096q0 -145 -92.5 -241.5t-224.5 -96.5q-50 0 -96 13t-67 25zM113 1260q0 54 39.5 93.5t93.5 39.5t93.5 -39.5t39.5 -93.5t-39.5 -94t-93.5 -40t-93.5 40t-39.5 94z" />
<glyph unicode="k" horiz-adv-x="962" d="M143 0v1393h226v-1393h-226zM410 430l245 410h246l-256 -410l287 -430h-246z" />
<glyph unicode="l" horiz-adv-x="512" d="M143 0v1393h226v-1393h-226z" />
<glyph unicode="m" horiz-adv-x="1556" d="M133 0v840h225v-82h21q3 5 8 13.5t23 29.5t40 37t58 29.5t76 13.5q46 0 89 -15t72 -36t51.5 -42t33.5 -36l10 -15h20q4 6 11 15.5t32.5 34.5t54 44t74 34.5t94.5 15.5q125 0 221.5 -102.5t96.5 -246.5v-532h-225v532q0 62 -43 103t-111 41t-116 -46t-48 -108v-522h-225 v532q0 62 -43 103t-111 41t-116 -46t-48 -108v-522h-225z" />
<glyph unicode="n" horiz-adv-x="1064" d="M133 0v840h225v-82h21q3 5 8.5 13.5t27 29.5t46 37t66 29.5t87.5 13.5q133 0 235.5 -109t102.5 -260v-512h-225v512q0 70 -49 117t-125 47q-75 0 -135 -55.5t-60 -118.5v-502h-225z" />
<glyph unicode="o" horiz-adv-x="1064" d="M72 420q0 192 134 326.5t326 134.5t326.5 -134.5t134.5 -326.5t-134.5 -326.5t-326.5 -134.5t-326 134.5t-134 326.5zM307 420q0 -105 69 -180.5t156 -75.5t156.5 75.5t69.5 180.5t-69.5 180.5t-156.5 75.5t-156 -75.5t-69 -180.5z" />
<glyph unicode="p" horiz-adv-x="1095" d="M133 -573v1413h225v-82h21q3 5 9 13.5t28.5 29.5t49 37t72 29.5t97.5 13.5q73 0 143 -35t124.5 -95t88 -147t33.5 -184t-33.5 -184t-88 -147t-124.5 -95t-143 -35q-52 0 -97 12.5t-73 30.5t-48.5 36.5t-28.5 31.5l-9 12h-21v-655h-225zM358 379q0 -85 65 -150t150 -65 q88 0 151.5 72t63.5 184t-63.5 184t-151.5 72q-85 0 -150 -65t-65 -150v-82z" />
<glyph unicode="q" horiz-adv-x="1095" d="M72 420q0 97 33.5 184t88 147t124.5 95t143 35q52 0 97 -12.5t73 -30.5t48.5 -36.5t28.5 -31.5l9 -12h20v82h226v-1413h-226v655h-20q-3 -5 -9 -13.5t-28.5 -29.5t-49 -37t-72 -29.5t-97.5 -13.5q-73 0 -143 35t-124.5 95t-88 147t-33.5 184zM307 420q0 -112 63.5 -184 t151.5 -72q85 0 150 65t65 150v82q0 85 -65 150t-150 65q-88 0 -151.5 -72t-63.5 -184z" />
<glyph unicode="r" horiz-adv-x="686" d="M133 0v840h225v-82h21q3 5 8.5 13.5t26 29.5t43 37t60 29.5t77.5 13.5q23 0 46 -5.5t34 -10.5l12 -5l-41 -215q-41 21 -92 21q-77 0 -136 -59t-59 -136v-471h-225z" />
<glyph unicode="s" horiz-adv-x="819" d="M31 123l153 143q3 -4 9.5 -11t27 -24.5t43 -31t57 -24.5t68.5 -11q59 0 91 26t32 66q0 23 -23.5 39.5t-61.5 28t-84 25t-92 34.5t-84 50t-61.5 78t-23.5 114q0 97 94 176.5t234 79.5q63 0 121 -15t95.5 -36t66.5 -42t42 -36l13 -15l-154 -143q-3 3 -7.5 8.5t-21 20 t-34 25t-45 19.5t-56.5 9q-52 0 -77 -19.5t-25 -52.5q0 -23 23.5 -39t61.5 -28t84 -25t92 -34t84 -50t61.5 -78t23.5 -114q0 -112 -96.5 -194.5t-251.5 -82.5q-69 0 -133.5 17t-107 41t-75.5 48t-48 41z" />
<glyph unicode="t" horiz-adv-x="737" d="M41 635v205h133v307h225v-307h215v-205h-215v-338q0 -60 33 -96.5t80 -36.5q23 0 46 10t34 20l12 11l72 -195q-8 -6 -23 -14.5t-63 -22.5t-98 -14q-132 0 -225 96.5t-93 241.5v338h-133z" />
<glyph unicode="u" d="M133 328v512h225v-512q0 -70 49 -117t125 -47q75 0 135 55.5t60 118.5v502h225v-840h-225v82h-20q-3 -5 -9 -13.5t-27 -29.5t-46 -37t-66.5 -29.5t-87.5 -13.5q-133 0 -235.5 109t-102.5 260z" />
<glyph unicode="v" horiz-adv-x="921" d="M20 840h246l185 -420h20l184 420h246l-409 -881h-62z" />
<glyph unicode="w" horiz-adv-x="1310" d="M20 840h246l154 -379h20l205 420h21l204 -420h21l153 379h246l-358 -881h-41l-225 461h-21l-225 -461h-41z" />
<glyph unicode="x" horiz-adv-x="901" d="M20 0l267 430l-236 410h256l133 -256h21l133 256h256l-236 -410l267 -430h-256l-164 276h-21l-164 -276h-256z" />
<glyph unicode="y" horiz-adv-x="921" d="M20 840h246l185 -512h20l184 512h246l-543 -1413h-245l225 573z" />
<glyph unicode="z" horiz-adv-x="819" d="M41 0v20l358 594v21h-338v205h717v-21l-358 -594v-20h338v-205h-717z" />
<glyph unicode="{" horiz-adv-x="696" d="M61 410v204h31q62 0 103 41t41 103v358q0 162 95 255t263 93h61v-225h-61q-47 0 -80 -35t-33 -88v-358q0 -57 -16 -102.5t-38.5 -69.5t-44.5 -39.5t-38 -20.5l-16 -4v-20q6 -1 16.5 -4.5t37 -20t46.5 -39.5t36.5 -69t16.5 -103v-358q0 -53 33 -88t80 -35h61v-225h-61 q-168 0 -263 93t-95 255v358q0 62 -41 103t-103 41h-31z" />
<glyph unicode="|" horiz-adv-x="573" d="M164 -573v2191h246v-2191h-246z" />
<glyph unicode="}" horiz-adv-x="696" d="M41 -215h61q47 0 80 35t33 88v358q0 57 16 102.5t38.5 69.5t45 39.5t38.5 20.5l16 4v20q-6 1 -16.5 4.5t-37 20t-47 39.5t-37 69t-16.5 103v358q0 53 -33 88t-80 35h-61v225h61q168 0 263.5 -93t95.5 -255v-358q0 -62 41 -103t102 -41h31v-204h-31q-61 0 -102 -41 t-41 -103v-358q0 -162 -95.5 -255t-263.5 -93h-61v225z" />
<glyph unicode="~" horiz-adv-x="819" d="M61 451q0 126 53.5 191t141.5 65q44 0 92.5 -23.5t89 -46.5t64.5 -23q31 0 51 22t20 60l185 -41q0 -126 -53.5 -191t-141.5 -65q-44 0 -92.5 23.5t-89 46.5t-64.5 23q-31 0 -51 -22t-20 -60z" />
<glyph unicode="&#xa1;" horiz-adv-x="552" d="M133 -573l41 962h205l41 -962h-287zM143 727q0 54 39.5 93.5t93.5 39.5t94 -39.5t40 -93.5t-40 -93.5t-94 -39.5t-93.5 39.5t-39.5 93.5z" />
<glyph unicode="&#xa2;" horiz-adv-x="972" d="M72 420q0 161 104.5 284t243.5 156v205h225v-205q55 -11 103.5 -36.5t79 -53.5t53 -54.5t31.5 -43.5l10 -17l-193 -102q-3 5 -8 13.5t-23 29.5t-39 37t-55.5 29.5t-71.5 13.5q-87 0 -156 -75.5t-69 -180.5t69 -180.5t156 -75.5q40 0 76 14.5t58.5 35.5t39.5 42.5t24 35.5 l7 15l195 -102q-4 -8 -11 -21.5t-33.5 -48.5t-57 -64t-80.5 -56t-105 -35v-205h-225v205q-139 33 -243.5 156t-104.5 284z" />
<glyph unicode="&#xa3;" horiz-adv-x="1024" d="M72 0v164q8 5 22 15t49 49t62 86t49 127.5t22 172.5h-143v226h123q-31 102 -31 204q0 177 106 283.5t283 106.5q55 0 107.5 -14t89 -33.5t65 -39t42.5 -33.5l14 -14l-123 -174l-8.5 8.5t-23.5 20t-37 25t-47.5 19.5t-57.5 9q-62 0 -108 -48t-46 -116q0 -45 7.5 -96 t15.5 -80l8 -28h225v-226h-215q0 -74 -12.5 -141.5t-31 -111t-36.5 -75.5t-30 -46l-13 -15v-20h553v-205h-880z" />
<glyph unicode="&#xa4;" horiz-adv-x="1228" d="M82 246v205h133v102h-133v205h133v635h420q149 0 267.5 -61t181.5 -158.5t63 -210.5q0 -81 -36 -155t-100.5 -130.5t-162.5 -90.5t-213 -34h-174v-102h461v-205h-461v-246h-246v246h-133zM461 758h174q119 0 187.5 58t68.5 147q0 88 -68.5 146t-187.5 58h-174v-409z" />
<glyph unicode="&#xa5;" horiz-adv-x="1187" d="M20 1393h277l287 -584h20l287 584h276l-379 -758h185v-205h-256v-102h256v-205h-256v-123h-246v123h-256v205h256v102h-256v205h184z" />
<glyph unicode="&#xa6;" horiz-adv-x="573" d="M164 307h246v-880h-246v880zM164 737v881h246v-881h-246z" />
<glyph unicode="&#xa7;" horiz-adv-x="1003" d="M92 -154l164 123q3 -5 9.5 -14t28 -32t44.5 -40.5t59.5 -32t73.5 -14.5q68 0 116 46t48 108q0 35 -29.5 67.5t-76.5 60.5t-104 58t-113.5 68t-103.5 82t-76.5 108t-29.5 139q0 63 21 118t51 88t60.5 57.5t51.5 34.5l21 10v20q-6 3 -16.5 8t-37 25.5t-46.5 46t-36.5 70 t-16.5 96.5q0 133 106 225t272 92q69 0 132.5 -20t104.5 -48.5t72.5 -57t45.5 -48.5l14 -20l-164 -123q-3 5 -9.5 12.5t-26.5 27t-41 34.5t-53 27t-64 12q-61 0 -102.5 -39.5t-41.5 -94.5q0 -33 22 -62.5t58 -52.5t82 -50t94 -52t94 -61t82 -75.5t58 -96.5t22 -123 q0 -63 -21 -118t-51 -88t-60 -57t-51 -34l-21 -10v-21q7 -3 19 -9t42 -28.5t52.5 -49t41.5 -72t19 -97.5q0 -141 -113 -239.5t-287 -98.5q-74 0 -141.5 22t-111 53.5t-75.5 63.5t-47 54zM338 573q0 -34 21 -69t51 -60t60.5 -45.5t51.5 -30.5l21 -10q5 3 14 8.5t32 24.5 t40.5 40t32 54.5t14.5 67.5t-21 69t-51 60t-60.5 45.5t-51.5 30.5l-21 10q-5 -3 -14 -8.5t-32 -24.5t-40.5 -40t-32 -54.5t-14.5 -67.5z" />
<glyph unicode="&#xa8;" horiz-adv-x="737" d="M61 1249q0 46 38.5 84.5t84.5 38.5t84.5 -38.5t38.5 -84.5t-38.5 -84.5t-84.5 -38.5t-84.5 38.5t-38.5 84.5zM430 1249q0 46 38.5 84.5t84.5 38.5t84.5 -38.5t38.5 -84.5t-38.5 -84.5t-84.5 -38.5t-84.5 38.5t-38.5 84.5z" />
<glyph unicode="&#xa9;" horiz-adv-x="1904" d="M113 594q0 174 65.5 329.5t177 267.5t267 177.5t329.5 65.5t329.5 -65.5t267.5 -177.5t177.5 -267.5t65.5 -329.5t-65.5 -329.5t-177.5 -267.5t-267.5 -177.5t-329.5 -65.5t-329.5 65.5t-267 177.5t-177 267.5t-65.5 329.5zM348 594q0 -131 48.5 -249.5t130 -202.5 t193 -133.5t232.5 -49.5t232.5 49.5t193 133.5t130 202.5t48.5 249.5t-48.5 249.5t-130 202.5t-193 133.5t-232.5 49.5t-232.5 -49.5t-193 -133.5t-130 -202.5t-48.5 -249.5zM604 594q0 166 105.5 277.5t253.5 111.5q60 0 114 -18t87.5 -43.5t58.5 -51t36 -43.5l11 -18 l-185 -102q-1 3 -3.5 7.5t-11.5 17t-20 22t-29 17t-38 7.5q-64 0 -103.5 -47.5t-39.5 -136.5t39.5 -136.5t103.5 -47.5q20 0 39 9.5t32 23t23 27t15 22.5l4 10l184 -103q-4 -8 -12 -21t-36.5 -46.5t-62 -59t-89.5 -46.5t-117 -21q-148 0 -253.5 111.5t-105.5 277.5z" />
<glyph unicode="&#xaa;" horiz-adv-x="686" d="M61 995q0 85 60.5 139t165.5 54q36 0 69.5 -5t48.5 -11l15 -5q0 45 -26.5 74t-65.5 29q-27 0 -53 -10t-38 -20l-12 -11l-102 112q3 4 8 10t23 22t40 28.5t58 22.5t76 10q122 0 199 -75.5t77 -191.5v-327h-184v51h-10q-7 -8 -19.5 -20t-50.5 -32t-74 -20 q-90 0 -147.5 51.5t-57.5 124.5zM254 1004q0 -16 15.5 -28.5t37.5 -12.5q32 0 60.5 20.5t40.5 40.5l12 20h-113q-23 0 -38 -12t-15 -28z" />
<glyph unicode="&#xab;" horiz-adv-x="901" d="M41 420l195 368h215l-195 -368l195 -369h-215zM410 420l194 368h215l-194 -368l194 -369h-215z" />
<glyph unicode="&#xac;" horiz-adv-x="819" d="M61 492v204h676v-389h-225v185h-451z" />
<glyph unicode="&#xad;" horiz-adv-x="819" d="M61 451v204h697v-204h-697z" />
<glyph unicode="&#xae;" horiz-adv-x="1904" d="M113 594q0 174 65.5 329.5t177 267.5t267 177.5t329.5 65.5t329.5 -65.5t267.5 -177.5t177.5 -267.5t65.5 -329.5t-65.5 -329.5t-177.5 -267.5t-267.5 -177.5t-329.5 -65.5t-329.5 65.5t-267 177.5t-177 267.5t-65.5 329.5zM348 594q0 -131 48.5 -249.5t130 -202.5 t193 -133.5t232.5 -49.5t232.5 49.5t193 133.5t130 202.5t48.5 249.5t-48.5 249.5t-130 202.5t-193 133.5t-232.5 49.5t-232.5 -49.5t-193 -133.5t-130 -202.5t-48.5 -249.5zM655 225v738h318q127 0 212 -76.5t85 -179.5q0 -34 -11.5 -66t-28 -52.5t-33.5 -36.5t-29 -23 l-11 -7v-20l154 -277h-236l-123 246h-71v-246h-226zM881 655h92q30 0 45.5 14t15.5 38q0 51 -61 51h-92v-103z" />
<glyph unicode="&#xaf;" horiz-adv-x="604" d="M61 1229v184h482v-184h-482z" />
<glyph unicode="&#xb0;" horiz-adv-x="655" d="M61 1147q0 107 80 186.5t187 79.5t186.5 -79.5t79.5 -186.5t-79.5 -186.5t-186.5 -79.5t-187 79.5t-80 186.5zM236 1147q0 -45 26.5 -74t65.5 -29t65.5 29t26.5 74t-26.5 73.5t-65.5 28.5t-65.5 -28.5t-26.5 -73.5z" />
<glyph unicode="&#xb1;" horiz-adv-x="880" d="M72 543v205h266v296h205v-296h266v-205h-266v-246h256v-205h-717v205h256v246h-266z" />
<glyph unicode="&#xb2;" horiz-adv-x="604" d="M51 1341q3 4 9.5 10t28.5 22t46 28.5t62.5 22.5t78.5 10q104 0 175 -62.5t71 -142.5q0 -46 -18 -85t-43.5 -62t-51 -39.5t-43.5 -22.5l-18 -6v-10h184v-164h-471v133q11 5 29 13t64 33.5t81 51t64 60.5t29 67q0 31 -20.5 51.5t-51.5 20.5q-27 0 -52.5 -13t-37.5 -25 l-12 -13z" />
<glyph unicode="&#xb3;" horiz-adv-x="573" d="M41 891l102 123q5 -6 13.5 -14.5t38 -22.5t61.5 -14q61 0 61 51t-61 51h-92v102l82 52v10h-174v164h420v-133l-134 -80v-13q6 -1 16.5 -3t37 -14t47 -29t37 -51t16.5 -77q0 -80 -67.5 -137t-178.5 -57q-40 0 -78 9.5t-63.5 23t-45 27t-29.5 23.5z" />
<glyph unicode="&#xb4;" horiz-adv-x="491" d="M61 1219l287 174l82 -174l-307 -134z" />
<glyph unicode="&#xb5;" d="M133 -573v1413h225v-512q0 -70 49 -117t125 -47q75 0 135 55.5t60 118.5v502h225v-840h-225v82h-20q-2 -5 -5.5 -13.5t-18 -29.5t-32.5 -37t-50 -29.5t-69 -13.5q-32 0 -59 12.5t-43.5 30.5t-28.5 36.5t-17 31.5l-5 12h-21v-655h-225z" />
<glyph unicode="&#xb6;" horiz-adv-x="839" d="M102 1065q0 137 93.5 232.5t224.5 95.5h379v-205h-154v-1761h-225v1310q-131 0 -224.5 95.5t-93.5 232.5z" />
<glyph unicode="&#xb7;" horiz-adv-x="409" d="M72 696q0 54 39.5 93.5t93.5 39.5t93.5 -39.5t39.5 -93.5t-39.5 -93.5t-93.5 -39.5t-93.5 39.5t-39.5 93.5z" />
<glyph unicode="&#xb8;" horiz-adv-x="522" d="M61 -430l62 123q51 -41 102 -41q37 0 59.5 18t22.5 43q0 24 -21.5 43t-52.5 19h-100l72 225h133l-31 -102q64 -16 109 -67t45 -118q0 -87 -65.5 -146t-170.5 -59q-42 0 -83 15.5t-61 30.5z" />
<glyph unicode="&#xb9;" horiz-adv-x="552" d="M61 1352l246 82h82v-430h123v-164h-430v164h123v225l-103 -21z" />
<glyph unicode="&#xba;" horiz-adv-x="757" d="M61 1116q0 130 93.5 224t224.5 94q130 0 223.5 -93.5t93.5 -224.5q0 -130 -93 -223.5t-224 -93.5t-224.5 93.5t-93.5 223.5zM266 1116q0 -60 33 -96.5t80 -36.5t80 36.5t33 96.5t-33 96.5t-80 36.5t-80 -36.5t-33 -96.5z" />
<glyph unicode="&#xbb;" horiz-adv-x="901" d="M82 51l194 369l-194 368h215l195 -368l-195 -369h-215zM451 51l194 369l-194 368h215l194 -368l-194 -369h-215z" />
<glyph unicode="&#xbc;" horiz-adv-x="1413" d="M61 1333l246 82h82v-430h123v-164h-430v164h123v225l-103 -20zM236 0l757 1393h256l-757 -1393h-256zM819 82v123l307 389h134v-358h71v-154h-71v-82h-185v82h-256zM1014 236h61v71h-10l-51 -61v-10z" />
<glyph unicode="&#xbd;" horiz-adv-x="1433" d="M61 1331l246 82h82v-430h123v-164h-430v164h123v225l-103 -20zM215 0l758 1393h256l-758 -1393h-256zM870 502q3 4 9.5 10t28.5 22t46.5 28t63 22t78.5 10q104 0 174.5 -62.5t70.5 -142.5q0 -46 -18 -85t-43.5 -62t-51 -39.5t-43.5 -22.5l-18 -6v-10h185v-164h-471v133 q11 5 29 13t63.5 33.5t81 51t64 60.5t28.5 67q0 31 -20.5 51.5t-51.5 20.5q-27 0 -52.5 -13t-37.5 -25l-12 -13z" />
<glyph unicode="&#xbe;" horiz-adv-x="1382" d="M61 891l103 123q4 -6 13 -14.5t38 -22.5t61 -14q62 0 62 51t-62 51h-92v102l82 52v10h-174v164h420v-133l-133 -80v-13q6 -1 16.5 -3t37 -14t46.5 -29t36.5 -51t16.5 -77q0 -80 -67 -137t-178 -57q-40 0 -78 9.5t-63.5 23t-45.5 27t-30 23.5zM205 0l758 1393h256 l-758 -1393h-256zM788 82v123l308 389h133v-358h71v-154h-71v-82h-185v82h-256zM983 236h61v71h-10l-51 -61v-10z" />
<glyph unicode="&#xbf;" horiz-adv-x="1003" d="M72 -215q0 60 19 114.5t50 96t68 80.5t74 75t68 71.5t50 78.5t19 88h225q0 -72 -23.5 -136t-58.5 -108t-76.5 -88.5t-76.5 -78.5t-58.5 -76.5t-23.5 -85.5q0 -85 62 -145t153 -60q43 0 85.5 17t72 41t52.5 48t35 41l11 17l184 -133q-6 -10 -17.5 -27.5t-53.5 -61.5 t-91 -78t-129.5 -61.5t-169.5 -27.5q-93 0 -177.5 33.5t-144 89t-94 128t-34.5 148.5zM399 727q0 54 39.5 93.5t93.5 39.5t94 -39.5t40 -93.5t-40 -93.5t-94 -39.5t-93.5 39.5t-39.5 93.5z" />
<glyph unicode="&#xc0;" horiz-adv-x="1310" d="M41 0l604 1475h21l604 -1475h-266l-82 205h-535l-80 -205h-266zM481 430h348l-163 430h-21zM492 1751l81 174l287 -174l-61 -133z" />
<glyph unicode="&#xc1;" horiz-adv-x="1310" d="M41 0l604 1475h21l604 -1475h-266l-82 205h-535l-80 -205h-266zM481 430h348l-163 430h-21zM532 1751l287 174l82 -174l-307 -133z" />
<glyph unicode="&#xc2;" horiz-adv-x="1310" d="M41 0l604 1475h21l604 -1475h-266l-82 205h-535l-80 -205h-266zM369 1720l286 174l287 -174l-61 -123l-226 103l-225 -103zM481 430h348l-163 430h-21z" />
<glyph unicode="&#xc3;" horiz-adv-x="1310" d="M41 0l604 1475h21l604 -1475h-266l-82 205h-535l-80 -205h-266zM399 1700q0 89 45 141.5t109 52.5q39 0 90 -30.5t74 -30.5q16 0 28.5 16t12.5 45l153 -51q0 -89 -44.5 -141.5t-108.5 -52.5q-39 0 -90 30.5t-74 30.5q-18 0 -29.5 -15.5t-11.5 -45.5zM481 430h348 l-163 430h-21z" />
<glyph unicode="&#xc4;" horiz-adv-x="1310" d="M41 0l604 1475h21l604 -1475h-266l-82 205h-535l-80 -205h-266zM358 1761q0 46 38.5 84.5t84.5 38.5t84.5 -38.5t38.5 -84.5t-38.5 -84.5t-84.5 -38.5t-84.5 38.5t-38.5 84.5zM481 430h348l-163 430h-21zM727 1761q0 46 38.5 84.5t84.5 38.5t84.5 -38.5t38.5 -84.5 t-38.5 -84.5t-84.5 -38.5t-84.5 38.5t-38.5 84.5z" />
<glyph unicode="&#xc5;" horiz-adv-x="1310" d="M41 0l604 1475h21l604 -1475h-266l-82 205h-535l-80 -205h-266zM430 1772q0 86 67 150.5t158 64.5q92 0 159 -65t67 -150q0 -86 -67.5 -151t-158.5 -65t-158 65t-67 151zM481 430h348l-163 430h-21zM563 1772q0 -38 27 -65.5t65 -27.5t65.5 27.5t27.5 65.5t-27.5 65 t-65.5 27t-65 -27t-27 -65z" />
<glyph unicode="&#xc6;" horiz-adv-x="1740" d="M20 0l543 1393h1075v-226h-563v-348h400v-225h-400v-369h584v-225h-830v287h-430l-112 -287h-267zM481 512h348v655h-92z" />
<glyph unicode="&#xc7;" horiz-adv-x="1464" d="M82 696q0 151 58 288t155.5 235.5t232 156.5t281.5 58q84 0 162 -18t135.5 -47t108 -64t84 -70t58 -64t35.5 -47l11 -18l-215 -123q-5 9 -15.5 24t-47 54t-77 68.5t-105.5 54t-134 24.5q-122 0 -230.5 -67.5t-174.5 -186t-66 -258.5t66 -258.5t174.5 -186t230.5 -67.5 q74 0 142.5 26.5t113.5 64t78.5 75t48.5 64.5l16 26l215 -123q-4 -7 -11 -19t-33 -47.5t-56 -68t-80.5 -73t-106 -70.5t-132.5 -52t-160 -26l-25 -84q64 -16 109 -66.5t45 -117.5q0 -87 -65.5 -146t-170.5 -59q-42 0 -83 15t-61 31l-20 15l62 123q51 -41 102 -41 q37 0 59.5 18.5t22.5 43.5q0 24 -21.5 42.5t-52.5 18.5h-100l68 211q-131 17 -247.5 81t-201 160t-133.5 223.5t-49 266.5z" />
<glyph unicode="&#xc8;" d="M174 0v1393h809v-226h-563v-348h399v-225h-399v-369h584v-225h-830zM399 1700l82 174l287 -174l-61 -133z" />
<glyph unicode="&#xc9;" d="M174 0v1393h809v-226h-563v-348h399v-225h-399v-369h584v-225h-830zM461 1700l287 174l81 -174l-307 -133z" />
<glyph unicode="&#xca;" d="M174 0v1393h809v-226h-563v-348h399v-225h-399v-369h584v-225h-830zM307 1710l287 174l287 -174l-62 -123l-225 103l-225 -103z" />
<glyph unicode="&#xcb;" d="M174 0v1393h809v-226h-563v-348h399v-225h-399v-369h584v-225h-830zM287 1731q0 46 38.5 84t84.5 38t84 -38t38 -84t-38 -84.5t-84 -38.5t-84.5 38.5t-38.5 84.5zM655 1731q0 46 38.5 84t84.5 38t84.5 -38t38.5 -84t-38.5 -84.5t-84.5 -38.5t-84.5 38.5t-38.5 84.5z" />
<glyph unicode="&#xcc;" horiz-adv-x="604" d="M133 1710l82 174l287 -174l-62 -133zM184 0v1393h246v-1393h-246z" />
<glyph unicode="&#xcd;" horiz-adv-x="604" d="M164 1710l287 174l81 -174l-307 -133zM174 0v1393h246v-1393h-246z" />
<glyph unicode="&#xce;" horiz-adv-x="634" d="M31 1720l286 174l287 -174l-61 -123l-226 103l-225 -103zM195 0v1393h245v-1393h-245z" />
<glyph unicode="&#xcf;" horiz-adv-x="634" d="M20 1710q0 46 38.5 84.5t84.5 38.5t84.5 -38.5t38.5 -84.5t-38.5 -84.5t-84.5 -38.5t-84.5 38.5t-38.5 84.5zM195 0v1393h245v-1393h-245zM389 1710q0 46 38.5 84.5t84.5 38.5t84.5 -38.5t38.5 -84.5t-38.5 -84.5t-84.5 -38.5t-84.5 38.5t-38.5 84.5z" />
<glyph unicode="&#xd0;" horiz-adv-x="1402" d="M82 573v226h123v594h409q143 0 274 -56t226 -150t151 -222.5t56 -268.5q0 -187 -95 -347t-258 -254.5t-354 -94.5h-409v573h-123zM451 225h163q87 0 170 38t144.5 101t99 150.5t37.5 181.5t-37.5 181.5t-99 150.5t-144.5 101t-170 38h-163v-368h245v-226h-245v-348z" />
<glyph unicode="&#xd1;" horiz-adv-x="1392" d="M174 0v1434h41l737 -861h21v820h246v-1434h-41l-738 860h-20v-819h-246zM440 1669q0 89 45 142t109 53q39 0 90 -31t74 -31q16 0 28.5 16.5t12.5 45.5l153 -52q0 -89 -44.5 -141.5t-108.5 -52.5q-39 0 -90 30.5t-74 30.5q-18 0 -29.5 -15.5t-11.5 -45.5z" />
<glyph unicode="&#xd2;" horiz-adv-x="1617" d="M82 696q0 151 58 288t155.5 235.5t232 156.5t281.5 58t281.5 -58t232 -156.5t155.5 -235.5t58 -288t-58 -287.5t-155.5 -235t-232 -156.5t-281.5 -58t-281.5 58t-232 156.5t-155.5 235t-58 287.5zM338 696q0 -140 66 -258.5t174.5 -186t230.5 -67.5t230.5 67.5t174.5 186 t66 258.5t-66 258.5t-174.5 186t-230.5 67.5t-230.5 -67.5t-174.5 -186t-66 -258.5zM645 1710l82 174l287 -174l-62 -133z" />
<glyph unicode="&#xd3;" horiz-adv-x="1617" d="M82 696q0 151 58 288t155.5 235.5t232 156.5t281.5 58t281.5 -58t232 -156.5t155.5 -235.5t58 -288t-58 -287.5t-155.5 -235t-232 -156.5t-281.5 -58t-281.5 58t-232 156.5t-155.5 235t-58 287.5zM338 696q0 -140 66 -258.5t174.5 -186t230.5 -67.5t230.5 67.5t174.5 186 t66 258.5t-66 258.5t-174.5 186t-230.5 67.5t-230.5 -67.5t-174.5 -186t-66 -258.5zM686 1710l287 174l82 -174l-307 -133z" />
<glyph unicode="&#xd4;" horiz-adv-x="1617" d="M82 696q0 151 58 288t155.5 235.5t232 156.5t281.5 58t281.5 -58t232 -156.5t155.5 -235.5t58 -288t-58 -287.5t-155.5 -235t-232 -156.5t-281.5 -58t-281.5 58t-232 156.5t-155.5 235t-58 287.5zM338 696q0 -140 66 -258.5t174.5 -186t230.5 -67.5t230.5 67.5t174.5 186 t66 258.5t-66 258.5t-174.5 186t-230.5 67.5t-230.5 -67.5t-174.5 -186t-66 -258.5zM522 1741l287 174l287 -174l-62 -123l-225 102l-225 -102z" />
<glyph unicode="&#xd5;" horiz-adv-x="1617" d="M82 696q0 151 58 288t155.5 235.5t232 156.5t281.5 58t281.5 -58t232 -156.5t155.5 -235.5t58 -288t-58 -287.5t-155.5 -235t-232 -156.5t-281.5 -58t-281.5 58t-232 156.5t-155.5 235t-58 287.5zM338 696q0 -140 66 -258.5t174.5 -186t230.5 -67.5t230.5 67.5t174.5 186 t66 258.5t-66 258.5t-174.5 186t-230.5 67.5t-230.5 -67.5t-174.5 -186t-66 -258.5zM563 1669q0 89 45 142t109 53q39 0 90 -31t74 -31q16 0 28.5 16.5t12.5 45.5l153 -52q0 -89 -44.5 -141.5t-108.5 -52.5q-39 0 -90 30.5t-74 30.5q-18 0 -29.5 -15.5t-11.5 -45.5z" />
<glyph unicode="&#xd6;" horiz-adv-x="1617" d="M82 696q0 151 58 288t155.5 235.5t232 156.5t281.5 58t281.5 -58t232 -156.5t155.5 -235.5t58 -288t-58 -287.5t-155.5 -235t-232 -156.5t-281.5 -58t-281.5 58t-232 156.5t-155.5 235t-58 287.5zM338 696q0 -140 66 -258.5t174.5 -186t230.5 -67.5t230.5 67.5t174.5 186 t66 258.5t-66 258.5t-174.5 186t-230.5 67.5t-230.5 -67.5t-174.5 -186t-66 -258.5zM512 1761q0 46 38.5 84.5t84.5 38.5t84.5 -38.5t38.5 -84.5t-38.5 -84.5t-84.5 -38.5t-84.5 38.5t-38.5 84.5zM881 1761q0 46 38.5 84.5t84.5 38.5t84 -38.5t38 -84.5t-38 -84.5t-84 -38.5 t-84.5 38.5t-38.5 84.5z" />
<glyph unicode="&#xd7;" horiz-adv-x="819" d="M72 317l204 226l-204 225l133 133l205 -205l204 205l134 -133l-205 -225l205 -226l-134 -133l-204 205l-205 -205z" />
<glyph unicode="&#xd8;" horiz-adv-x="1658" d="M41 133v195l123 71q-7 14 -17.5 39t-27.5 103t-17 155q0 151 58 288t155.5 235.5t232 156.5t281.5 58q109 0 209 -30.5t165.5 -74t115 -87.5t71.5 -74l23 -31l205 123v-195l-123 -72q7 -15 17 -41.5t27 -104.5t17 -151q0 -155 -56.5 -292t-153 -234.5t-231.5 -154 t-286 -56.5q-109 0 -209 30.5t-165 74t-114.5 87.5t-72.5 75l-22 30zM358 696q0 -45 8 -86t16 -60l7 -18l799 482q-5 8 -14.5 21t-43.5 46.5t-72.5 59t-100.5 46.5t-128 21q-122 0 -230.5 -67.5t-174.5 -186t-66 -258.5zM471 379q5 -8 15.5 -21t45.5 -46.5t74 -59.5 t99.5 -47t123.5 -21q122 0 230.5 67.5t174.5 186t66 258.5q0 36 -7.5 77t-14.5 64l-8 23z" />
<glyph unicode="&#xd9;" horiz-adv-x="1351" d="M164 481v912h246v-912q0 -128 78 -212.5t188 -84.5t188 84.5t78 212.5v912h246v-912q0 -146 -68 -266t-185 -188t-259 -68t-259 68t-185 188t-68 266zM471 1710l82 174l287 -174l-62 -133z" />
<glyph unicode="&#xda;" horiz-adv-x="1351" d="M164 481v912h246v-912q0 -128 78 -212.5t188 -84.5t188 84.5t78 212.5v912h246v-912q0 -146 -68 -266t-185 -188t-259 -68t-259 68t-185 188t-68 266zM573 1710l287 174l82 -174l-307 -133z" />
<glyph unicode="&#xdb;" horiz-adv-x="1351" d="M164 481v912h246v-912q0 -128 78 -212.5t188 -84.5t188 84.5t78 212.5v912h246v-912q0 -146 -68 -266t-185 -188t-259 -68t-259 68t-185 188t-68 266zM389 1700l287 174l287 -174l-62 -123l-225 102l-225 -102z" />
<glyph unicode="&#xdc;" horiz-adv-x="1351" d="M164 481v912h246v-912q0 -128 78 -212.5t188 -84.5t188 84.5t78 212.5v912h246v-912q0 -146 -68 -266t-185 -188t-259 -68t-259 68t-185 188t-68 266zM379 1741q0 46 38.5 84.5t84.5 38.5t84.5 -38.5t38.5 -84.5t-38.5 -84.5t-84.5 -38.5t-84.5 38.5t-38.5 84.5z M748 1741q0 46 38 84.5t84 38.5t84.5 -38.5t38.5 -84.5t-38.5 -84.5t-84.5 -38.5t-84 38.5t-38 84.5z" />
<glyph unicode="&#xdd;" horiz-adv-x="1187" d="M20 1393h277l287 -584h20l287 584h276l-450 -901v-492h-246v492zM461 1690l287 174l81 -174l-307 -134z" />
<glyph unicode="&#xde;" horiz-adv-x="1259" d="M174 -20v1474h246v-143h102q147 0 270.5 -45.5t207.5 -124.5t131 -188.5t47 -235.5t-47 -235.5t-131 -188.5t-207.5 -124.5t-270.5 -45.5h-102v-143h-246zM420 348h102q175 0 287.5 106.5t112.5 262.5t-112.5 262t-287.5 106h-102v-737z" />
<glyph unicode="&#xdf;" horiz-adv-x="1105" d="M143 0v1014q0 177 121.5 298.5t298.5 121.5q167 0 278 -107t111 -262q0 -52 -19 -104t-42.5 -88.5t-42.5 -84.5t-19 -92q0 -39 21 -77.5t51 -72.5t60.5 -70t51.5 -85.5t21 -103.5q0 -140 -89.5 -223.5t-248.5 -83.5q-18 0 -43.5 5t-42.5 10l-16 5v205q41 -21 82 -21 q55 0 89 36t34 97q0 36 -21 72.5t-51 69t-60.5 66.5t-51.5 78.5t-21 92.5q0 52 19 104t42.5 88.5t42.5 84.5t19 92q0 55 -46.5 99t-107.5 44q-85 0 -139.5 -54.5t-54.5 -139.5v-1014h-226z" />
<glyph unicode="&#xe0;" horiz-adv-x="952" d="M51 246q0 128 94.5 207t253.5 79q55 0 108.5 -10t80.5 -20l26 -10q0 76 -52 130t-122 54q-45 0 -88.5 -18t-64.5 -36l-21 -18l-133 154q4 5 12 13.5t37 29.5t61.5 37t86 29.5t110.5 13.5q168 0 284 -113.5t116 -275.5v-492h-226v82h-20q-3 -5 -9 -13.5t-27 -29.5t-46 -37 t-66.5 -29.5t-87.5 -13.5q-136 0 -221.5 81.5t-85.5 205.5zM287 246q0 -34 34 -58t99 -24q43 0 79 16t56.5 38t34.5 44.5t19 38.5l5 16q-92 11 -215 11q-51 0 -81.5 -24.5t-30.5 -57.5zM297 1157l82 174l287 -174l-62 -133z" />
<glyph unicode="&#xe1;" horiz-adv-x="952" d="M51 246q0 128 94.5 207t253.5 79q55 0 108.5 -10t80.5 -20l26 -10q0 76 -52 130t-122 54q-45 0 -88.5 -18t-64.5 -36l-21 -18l-133 154q4 5 12 13.5t37 29.5t61.5 37t86 29.5t110.5 13.5q168 0 284 -113.5t116 -275.5v-492h-226v82h-20q-3 -5 -9 -13.5t-27 -29.5t-46 -37 t-66.5 -29.5t-87.5 -13.5q-136 0 -221.5 81.5t-85.5 205.5zM287 246q0 -34 34 -58t99 -24q43 0 79 16t56.5 38t34.5 44.5t19 38.5l5 16q-92 11 -215 11q-51 0 -81.5 -24.5t-30.5 -57.5zM379 1157l287 174l82 -174l-308 -133z" />
<glyph unicode="&#xe2;" horiz-adv-x="952" d="M51 246q0 128 94.5 207t253.5 79q55 0 108.5 -10t80.5 -20l26 -10q0 76 -52 130t-122 54q-45 0 -88.5 -18t-64.5 -36l-21 -18l-133 154q4 5 12 13.5t37 29.5t61.5 37t86 29.5t110.5 13.5q168 0 284 -113.5t116 -275.5v-492h-226v82h-20q-3 -5 -9 -13.5t-27 -29.5t-46 -37 t-66.5 -29.5t-87.5 -13.5q-136 0 -221.5 81.5t-85.5 205.5zM205 1167l287 174l286 -174l-61 -123l-225 103l-226 -103zM287 246q0 -34 34 -58t99 -24q43 0 79 16t56.5 38t34.5 44.5t19 38.5l5 16q-92 11 -215 11q-51 0 -81.5 -24.5t-30.5 -57.5z" />
<glyph unicode="&#xe3;" horiz-adv-x="952" d="M51 246q0 128 94.5 207t253.5 79q55 0 108.5 -10t80.5 -20l26 -10q0 76 -52 130t-122 54q-45 0 -88.5 -18t-64.5 -36l-21 -18l-133 154q4 5 12 13.5t37 29.5t61.5 37t86 29.5t110.5 13.5q168 0 284 -113.5t116 -275.5v-492h-226v82h-20q-3 -5 -9 -13.5t-27 -29.5t-46 -37 t-66.5 -29.5t-87.5 -13.5q-136 0 -221.5 81.5t-85.5 205.5zM225 1116q0 89 45 142t109 53q39 0 90 -31t74 -31q16 0 28.5 16.5t12.5 45.5l153 -51q0 -89 -44.5 -142t-108.5 -53q-39 0 -90 30.5t-74 30.5q-18 0 -29.5 -15.5t-11.5 -45.5zM287 246q0 -34 34 -58t99 -24 q43 0 79 16t56.5 38t34.5 44.5t19 38.5l5 16q-92 11 -215 11q-51 0 -81.5 -24.5t-30.5 -57.5z" />
<glyph unicode="&#xe4;" horiz-adv-x="952" d="M51 246q0 128 94.5 207t253.5 79q55 0 108.5 -10t80.5 -20l26 -10q0 76 -52 130t-122 54q-45 0 -88.5 -18t-64.5 -36l-21 -18l-133 154q4 5 12 13.5t37 29.5t61.5 37t86 29.5t110.5 13.5q168 0 284 -113.5t116 -275.5v-492h-226v82h-20q-3 -5 -9 -13.5t-27 -29.5t-46 -37 t-66.5 -29.5t-87.5 -13.5q-136 0 -221.5 81.5t-85.5 205.5zM195 1208q0 46 38 84.5t84 38.5t84.5 -38.5t38.5 -84.5t-38.5 -84.5t-84.5 -38.5t-84 38.5t-38 84.5zM287 246q0 -34 34 -58t99 -24q43 0 79 16t56.5 38t34.5 44.5t19 38.5l5 16q-92 11 -215 11q-51 0 -81.5 -24.5 t-30.5 -57.5zM563 1208q0 46 38.5 84.5t84.5 38.5t84.5 -38.5t38.5 -84.5t-38.5 -84.5t-84.5 -38.5t-84.5 38.5t-38.5 84.5z" />
<glyph unicode="&#xe5;" horiz-adv-x="952" d="M51 246q0 128 94.5 207t253.5 79q55 0 108.5 -10t80.5 -20l26 -10q0 76 -52 130t-122 54q-45 0 -88.5 -18t-64.5 -36l-21 -18l-133 154q4 5 12 13.5t37 29.5t61.5 37t86 29.5t110.5 13.5q168 0 284 -113.5t116 -275.5v-492h-226v82h-20q-3 -5 -9 -13.5t-27 -29.5t-46 -37 t-66.5 -29.5t-87.5 -13.5q-136 0 -221.5 81.5t-85.5 205.5zM256 1229q0 86 67 150.5t158 64.5q92 0 159 -65t67 -150t-67 -150t-159 -65q-91 0 -158 64.5t-67 150.5zM287 246q0 -34 34 -58t99 -24q43 0 79 16t56.5 38t34.5 44.5t19 38.5l5 16q-92 11 -215 11 q-51 0 -81.5 -24.5t-30.5 -57.5zM389 1229q0 -38 27 -65t65 -27t65 27t27 65t-27 65t-65 27t-65 -27t-27 -65z" />
<glyph unicode="&#xe6;" horiz-adv-x="1525" d="M51 246q0 128 94.5 207t253.5 79q55 0 108.5 -10t80.5 -20l26 -10q0 76 -52 130t-122 54q-45 0 -86 -15.5t-60 -30.5l-18 -16l-133 154q4 5 11.5 12.5t34 27t58 34.5t84 27t109.5 12t108 -15t82 -36t54.5 -42t33.5 -36l9 -15h21q3 6 10 15.5t32.5 34.5t56.5 44t84 34.5 t113 15.5q169 0 294.5 -133.5t125.5 -317.5l-92 -92h-512q15 -77 65.5 -125.5t118.5 -48.5q37 0 71 12.5t55.5 31t38 36.5t23.5 30l7 13l195 -103q-5 -9 -14 -24t-43.5 -54t-75.5 -68.5t-110.5 -54t-146.5 -24.5q-60 0 -112.5 14.5t-85 35.5t-56 42.5t-32.5 36.5l-10 14h-21 q-3 -6 -10 -15.5t-34.5 -34t-61.5 -43.5t-93.5 -34.5t-128.5 -15.5q-169 0 -258.5 82t-89.5 205zM287 246q0 -34 34 -58t99 -24q43 0 79 16t56.5 38t34.5 44.5t19 38.5l5 16q-72 11 -215 11q-51 0 -81.5 -24.5t-30.5 -57.5zM860 522h369q-24 72 -71 113t-114 41t-113.5 -41 t-70.5 -113z" />
<glyph unicode="&#xe7;" horiz-adv-x="972" d="M72 420q0 192 134 326.5t326 134.5q77 0 145.5 -23.5t111.5 -56.5t74.5 -66t44.5 -57l14 -23l-195 -102q-3 5 -7.5 13.5t-22.5 29.5t-39 37t-55 29.5t-71 13.5q-87 0 -156 -75.5t-69 -180.5t69 -180.5t156 -75.5q40 0 76 14.5t58.5 35.5t39.5 42.5t24 35.5l7 15l195 -102 q-4 -9 -12.5 -24t-40.5 -54.5t-69.5 -70.5t-102 -60t-136.5 -35l-18 -63q64 -16 109 -67t45 -118q0 -87 -65.5 -146t-170.5 -59q-42 0 -83 15.5t-61 30.5l-20 16l62 123q51 -41 102 -41q37 0 59.5 18t22.5 43q0 24 -21.5 43t-52.5 19h-100l61 194q-160 31 -264 157.5 t-104 293.5z" />
<glyph unicode="&#xe8;" horiz-adv-x="1034" d="M72 420q0 192 134 326.5t326 134.5q121 0 222.5 -61t160 -165t58.5 -225l-92 -92h-564q25 -73 83.5 -123.5t131.5 -50.5q40 0 76 12.5t58.5 31t39.5 36.5t24 30l7 13l195 -103q-5 -9 -14 -24t-44 -54t-77 -68.5t-113.5 -54t-151.5 -24.5q-192 0 -326 134.5t-134 326.5z M328 522h409q-69 154 -205 154q-135 0 -204 -154zM358 1157l82 174l287 -174l-61 -133z" />
<glyph unicode="&#xe9;" horiz-adv-x="1034" d="M72 420q0 192 134 326.5t326 134.5q121 0 222.5 -61t160 -165t58.5 -225l-92 -92h-564q25 -73 83.5 -123.5t131.5 -50.5q40 0 76 12.5t58.5 31t39.5 36.5t24 30l7 13l195 -103q-5 -9 -14 -24t-44 -54t-77 -68.5t-113.5 -54t-151.5 -24.5q-192 0 -326 134.5t-134 326.5z M328 522h409q-69 154 -205 154q-135 0 -204 -154zM379 1178l287 174l82 -174l-308 -134z" />
<glyph unicode="&#xea;" horiz-adv-x="1034" d="M72 420q0 192 134 326.5t326 134.5q121 0 222.5 -61t160 -165t58.5 -225l-92 -92h-564q25 -73 83.5 -123.5t131.5 -50.5q40 0 76 12.5t58.5 31t39.5 36.5t24 30l7 13l195 -103q-5 -9 -14 -24t-44 -54t-77 -68.5t-113.5 -54t-151.5 -24.5q-192 0 -326 134.5t-134 326.5z M236 1167l286 174l287 -174l-61 -123l-226 103l-225 -103zM328 522h409q-69 154 -205 154q-135 0 -204 -154z" />
<glyph unicode="&#xeb;" horiz-adv-x="1034" d="M72 420q0 192 134 326.5t326 134.5q121 0 222.5 -61t160 -165t58.5 -225l-92 -92h-564q25 -73 83.5 -123.5t131.5 -50.5q40 0 76 12.5t58.5 31t39.5 36.5t24 30l7 13l195 -103q-5 -9 -14 -24t-44 -54t-77 -68.5t-113.5 -54t-151.5 -24.5q-192 0 -326 134.5t-134 326.5z M225 1208q0 46 38.5 84.5t84.5 38.5t84.5 -38.5t38.5 -84.5t-38.5 -84.5t-84.5 -38.5t-84.5 38.5t-38.5 84.5zM328 522h409q-69 154 -205 154q-135 0 -204 -154zM594 1208q0 46 38.5 84.5t84.5 38.5t84.5 -38.5t38.5 -84.5t-38.5 -84.5t-84.5 -38.5t-84.5 38.5t-38.5 84.5z " />
<glyph unicode="&#xec;" horiz-adv-x="491" d="M61 1178l82 174l287 -174l-61 -134zM133 0v840h225v-840h-225z" />
<glyph unicode="&#xed;" horiz-adv-x="481" d="M82 1178l287 174l82 -174l-308 -134zM123 0v840h225v-840h-225z" />
<glyph unicode="&#xee;" horiz-adv-x="491" d="M-41 1188l287 174l286 -174l-61 -123l-225 102l-226 -102zM133 0v840h225v-840h-225z" />
<glyph unicode="&#xef;" horiz-adv-x="481" d="M-51 1229q0 46 38.5 84.5t84.5 38.5t84.5 -38.5t38.5 -84.5t-38.5 -84.5t-84.5 -38.5t-84.5 38.5t-38.5 84.5zM133 0v840h225v-840h-225zM317 1229q0 46 38.5 84.5t84.5 38.5t84.5 -38.5t38.5 -84.5t-38.5 -84.5t-84.5 -38.5t-84.5 38.5t-38.5 84.5z" />
<glyph unicode="&#xf0;" horiz-adv-x="983" d="M51 389q0 114 56.5 214.5t146 158t186.5 57.5q46 0 87 -10.5t67 -25.5t45.5 -30t28.5 -25l8 -11h20q-9 63 -30 124t-45 103t-46.5 75.5t-37.5 49.5l-15 16l-112 -122l-144 133l113 123l-164 143l133 143l164 -143l113 123l143 -133l-113 -123q10 -9 27.5 -26.5 t61.5 -77.5t78 -126.5t61.5 -171t27.5 -213.5v-204q0 -191 -126 -321t-304 -130q-177 0 -303.5 126.5t-126.5 303.5zM287 389q0 -97 57.5 -161t136.5 -64t137 64t58 161t-58 161t-137 64t-136.5 -64t-57.5 -161z" />
<glyph unicode="&#xf1;" horiz-adv-x="1064" d="M133 0v840h225v-82h21q3 5 8.5 13.5t27 29.5t46 37t66 29.5t87.5 13.5q133 0 235.5 -109t102.5 -260v-512h-225v512q0 70 -49 117t-125 47q-75 0 -135 -55.5t-60 -118.5v-502h-225zM307 1157q0 89 45 142t109 53q39 0 90 -31t74 -31q16 0 28.5 16.5t12.5 45.5l153 -52 q0 -89 -44.5 -141.5t-108.5 -52.5q-39 0 -90 30.5t-74 30.5q-18 0 -29.5 -15.5t-11.5 -45.5z" />
<glyph unicode="&#xf2;" horiz-adv-x="1064" d="M72 420q0 192 134 326.5t326 134.5t326.5 -134.5t134.5 -326.5t-134.5 -326.5t-326.5 -134.5t-326 134.5t-134 326.5zM307 420q0 -105 69 -180.5t156 -75.5t156.5 75.5t69.5 180.5t-69.5 180.5t-156.5 75.5t-156 -75.5t-69 -180.5zM348 1178l82 174l287 -174l-62 -134z " />
<glyph unicode="&#xf3;" horiz-adv-x="1064" d="M72 420q0 192 134 326.5t326 134.5t326.5 -134.5t134.5 -326.5t-134.5 -326.5t-326.5 -134.5t-326 134.5t-134 326.5zM307 420q0 -105 69 -180.5t156 -75.5t156.5 75.5t69.5 180.5t-69.5 180.5t-156.5 75.5t-156 -75.5t-69 -180.5zM389 1178l287 174l82 -174l-307 -134z " />
<glyph unicode="&#xf4;" horiz-adv-x="1064" d="M72 420q0 192 134 326.5t326 134.5t326.5 -134.5t134.5 -326.5t-134.5 -326.5t-326.5 -134.5t-326 134.5t-134 326.5zM246 1188l286 174l287 -174l-61 -123l-226 102l-225 -102zM307 420q0 -105 69 -180.5t156 -75.5t156.5 75.5t69.5 180.5t-69.5 180.5t-156.5 75.5 t-156 -75.5t-69 -180.5z" />
<glyph unicode="&#xf5;" horiz-adv-x="1064" d="M72 420q0 192 134 326.5t326 134.5t326.5 -134.5t134.5 -326.5t-134.5 -326.5t-326.5 -134.5t-326 134.5t-134 326.5zM276 1137q0 89 45 141.5t109 52.5q39 0 90 -30.5t74 -30.5q16 0 28.5 16t12.5 45l153 -51q0 -89 -44.5 -142t-108.5 -53q-39 0 -90 31t-74 31 q-18 0 -29.5 -16t-11.5 -46zM307 420q0 -105 69 -180.5t156 -75.5t156.5 75.5t69.5 180.5t-69.5 180.5t-156.5 75.5t-156 -75.5t-69 -180.5z" />
<glyph unicode="&#xf6;" horiz-adv-x="1064" d="M72 420q0 192 134 326.5t326 134.5t326.5 -134.5t134.5 -326.5t-134.5 -326.5t-326.5 -134.5t-326 134.5t-134 326.5zM236 1229q0 46 38 84.5t84 38.5t84.5 -38.5t38.5 -84.5t-38.5 -84.5t-84.5 -38.5t-84 38.5t-38 84.5zM307 420q0 -105 69 -180.5t156 -75.5t156.5 75.5 t69.5 180.5t-69.5 180.5t-156.5 75.5t-156 -75.5t-69 -180.5zM604 1229q0 46 38.5 84.5t84.5 38.5t84.5 -38.5t38.5 -84.5t-38.5 -84.5t-84.5 -38.5t-84.5 38.5t-38.5 84.5z" />
<glyph unicode="&#xf7;" horiz-adv-x="839" d="M61 451v204h717v-204h-717zM61 451v204h717v-204h-717zM287 174q0 54 39.5 93.5t93.5 39.5t93.5 -39.5t39.5 -93.5t-39.5 -93.5t-93.5 -39.5t-93.5 39.5t-39.5 93.5zM287 932q0 54 39.5 93.5t93.5 39.5t93.5 -39.5t39.5 -93.5t-39.5 -93.5t-93.5 -39.5t-93.5 39.5 t-39.5 93.5z" />
<glyph unicode="&#xf8;" horiz-adv-x="1105" d="M20 31v164l103 61q-31 62 -31 164q0 192 134.5 326.5t326.5 134.5q66 0 127 -18t101.5 -43.5t71 -51t44.5 -43.5l14 -18l174 102v-164l-102 -61q31 -72 31 -164q0 -192 -134.5 -326.5t-326.5 -134.5q-66 0 -127 18t-101.5 43.5t-71 51t-44.5 43.5l-14 18zM328 369 l389 225l-8.5 8.5t-23 20t-35.5 25t-44.5 19.5t-52.5 9q-87 0 -156 -75.5t-69 -180.5v-51zM389 246l8.5 -8.5t23 -20t35.5 -25t44.5 -19.5t52.5 -9q87 0 156 75.5t69 180.5v51z" />
<glyph unicode="&#xf9;" d="M133 328v512h225v-512q0 -70 49 -117t125 -47q75 0 135 55.5t60 118.5v502h225v-840h-225v82h-20q-3 -5 -9 -13.5t-27 -29.5t-46 -37t-66.5 -29.5t-87.5 -13.5q-133 0 -235.5 109t-102.5 260zM358 1178l82 174l287 -174l-61 -134z" />
<glyph unicode="&#xfa;" d="M133 328v512h225v-512q0 -70 49 -117t125 -47q75 0 135 55.5t60 118.5v502h225v-840h-225v82h-20q-3 -5 -9 -13.5t-27 -29.5t-46 -37t-66.5 -29.5t-87.5 -13.5q-133 0 -235.5 109t-102.5 260zM420 1178l287 174l81 -174l-307 -134z" />
<glyph unicode="&#xfb;" d="M133 328v512h225v-512q0 -70 49 -117t125 -47q75 0 135 55.5t60 118.5v502h225v-840h-225v82h-20q-3 -5 -9 -13.5t-27 -29.5t-46 -37t-66.5 -29.5t-87.5 -13.5q-133 0 -235.5 109t-102.5 260zM256 1188l287 174l286 -174l-61 -123l-225 102l-226 -102z" />
<glyph unicode="&#xfc;" d="M133 328v512h225v-512q0 -70 49 -117t125 -47q75 0 135 55.5t60 118.5v502h225v-840h-225v82h-20q-3 -5 -9 -13.5t-27 -29.5t-46 -37t-66.5 -29.5t-87.5 -13.5q-133 0 -235.5 109t-102.5 260zM246 1208q0 46 38.5 84.5t84.5 38.5t84.5 -38.5t38.5 -84.5t-38.5 -84.5 t-84.5 -38.5t-84.5 38.5t-38.5 84.5zM614 1208q0 46 38.5 84.5t84.5 38.5t84.5 -38.5t38.5 -84.5t-38.5 -84.5t-84.5 -38.5t-84.5 38.5t-38.5 84.5z" />
<glyph unicode="&#xfd;" horiz-adv-x="921" d="M20 840h246l185 -512h20l184 512h246l-543 -1413h-245l225 573zM328 1178l286 174l82 -174l-307 -134z" />
<glyph unicode="&#xfe;" horiz-adv-x="1105" d="M143 -573v1966h226v-635h20q3 5 9 13.5t28.5 29.5t49 37t72 29.5t97.5 13.5q73 0 143 -35t124.5 -95t88 -147t33.5 -184t-33.5 -184t-88 -147t-124.5 -95t-143 -35q-52 0 -97 12.5t-73 30.5t-48.5 36.5t-28.5 31.5l-9 12h-20v-655h-226zM369 379q0 -85 65 -150t150 -65 q88 0 151.5 72t63.5 184t-63.5 184t-151.5 72q-85 0 -150 -65t-65 -150v-82z" />
<glyph unicode="&#xff;" horiz-adv-x="921" d="M20 840h246l185 -512h20l184 512h246l-543 -1413h-245l225 573zM154 1208q0 46 38 84.5t84 38.5t84.5 -38.5t38.5 -84.5t-38.5 -84.5t-84.5 -38.5t-84 38.5t-38 84.5zM522 1208q0 46 38.5 84.5t84.5 38.5t84.5 -38.5t38.5 -84.5t-38.5 -84.5t-84.5 -38.5t-84.5 38.5 t-38.5 84.5z" />
<glyph unicode="&#x152;" horiz-adv-x="1761" d="M82 696q0 140 56 268.5t150.5 222.5t225.5 150t274 56h871v-226h-563v-348h399v-225h-399v-369h583v-225h-891q-143 0 -274 56t-225.5 149.5t-150.5 222t-56 268.5zM338 696q0 -190 136 -330.5t314 -140.5h62v942h-62q-178 0 -314 -140.5t-136 -330.5z" />
<glyph unicode="&#x153;" horiz-adv-x="1669" d="M72 420q0 192 134 326.5t326 134.5q69 0 128 -17t94 -41t60.5 -48t35.5 -41l10 -17h21q3 7 10 18t33.5 39t58.5 50t87 39.5t118 17.5q169 0 294.5 -133.5t125.5 -317.5l-92 -92h-512q15 -77 65.5 -125.5t118.5 -48.5q37 0 71 12.5t55.5 31t37.5 36.5t23 30l7 13l195 -103 q-5 -9 -14 -24t-43.5 -54t-75.5 -68.5t-110 -54t-146 -24.5q-63 0 -118 17t-88 41t-57 48t-34 41l-10 17h-21q-3 -7 -10 -18t-34.5 -39t-61.5 -50t-93.5 -39.5t-128.5 -17.5q-192 0 -326 134.5t-134 326.5zM307 420q0 -105 69 -180.5t156 -75.5t156.5 75.5t69.5 180.5 t-69.5 180.5t-156.5 75.5t-156 -75.5t-69 -180.5zM1004 522h368q-24 72 -70.5 113t-113.5 41t-113.5 -41t-70.5 -113z" />
<glyph unicode="&#x178;" horiz-adv-x="1187" d="M20 1393h277l287 -584h20l287 584h276l-450 -901v-492h-246v492zM287 1741q0 46 38.5 84.5t84.5 38.5t84 -38.5t38 -84.5t-38 -84.5t-84 -38.5t-84.5 38.5t-38.5 84.5zM655 1741q0 46 38.5 84.5t84.5 38.5t84.5 -38.5t38.5 -84.5t-38.5 -84.5t-84.5 -38.5t-84.5 38.5 t-38.5 84.5z" />
<glyph unicode="&#x2c6;" horiz-adv-x="696" d="M61 1229l287 174l287 -174l-62 -123l-225 102l-225 -102z" />
<glyph unicode="&#x2dc;" horiz-adv-x="634" d="M61 1198q0 89 45 142t109 53q39 0 90 -31t74 -31q16 0 28.5 16.5t12.5 45.5l153 -52q0 -89 -44.5 -141.5t-108.5 -52.5q-39 0 -90 30.5t-74 30.5q-18 0 -29.5 -15.5t-11.5 -45.5z" />
<glyph unicode="&#x2000;" horiz-adv-x="993" />
<glyph unicode="&#x2001;" horiz-adv-x="1987" />
<glyph unicode="&#x2002;" horiz-adv-x="993" />
<glyph unicode="&#x2003;" horiz-adv-x="1987" />
<glyph unicode="&#x2004;" horiz-adv-x="662" />
<glyph unicode="&#x2005;" horiz-adv-x="496" />
<glyph unicode="&#x2006;" horiz-adv-x="331" />
<glyph unicode="&#x2007;" horiz-adv-x="331" />
<glyph unicode="&#x2008;" horiz-adv-x="248" />
<glyph unicode="&#x2009;" horiz-adv-x="397" />
<glyph unicode="&#x200a;" horiz-adv-x="110" />
<glyph unicode="&#x2010;" horiz-adv-x="819" d="M61 451v204h697v-204h-697z" />
<glyph unicode="&#x2011;" horiz-adv-x="819" d="M61 451v204h697v-204h-697z" />
<glyph unicode="&#x2012;" horiz-adv-x="819" d="M61 451v204h697v-204h-697z" />
<glyph unicode="&#x2013;" horiz-adv-x="1003" d="M61 451v204h881v-204h-881z" />
<glyph unicode="&#x2014;" horiz-adv-x="1331" d="M61 451v204h1209v-204h-1209z" />
<glyph unicode="&#x2018;" horiz-adv-x="409" d="M72 1065q0 23 10 51t20 45l11 17l123 215h92l-82 -215q4 -1 10 -3t22 -10.5t28 -20t22 -32.5t10 -47q0 -54 -39.5 -93.5t-93.5 -39.5t-93.5 39.5t-39.5 93.5z" />
<glyph unicode="&#x2019;" horiz-adv-x="413" d="M74 1260q0 54 39.5 93.5t93.5 39.5t93.5 -39.5t39.5 -93.5q0 -23 -10 -51t-20 -45l-11 -17l-123 -215h-92l82 215q-4 1 -10 3t-22 10.5t-28 20t-22 32.5t-10 47z" />
<glyph unicode="&#x201a;" horiz-adv-x="389" d="M61 113q0 54 40 93.5t94 39.5t93.5 -39.5t39.5 -93.5q0 -23 -10 -51t-20 -45l-11 -17l-123 -215h-92l82 215q-4 1 -10 3t-22 10.5t-28.5 20t-22.5 32.5t-10 47z" />
<glyph unicode="&#x201c;" horiz-adv-x="757" d="M72 1065q0 23 10 51t20 45l11 17l123 215h92l-82 -215q4 -1 10 -3t22 -10.5t28 -20t22 -32.5t10 -47q0 -54 -39.5 -93.5t-93.5 -39.5t-93.5 39.5t-39.5 93.5zM420 1065q0 23 10 51t20 45l11 17l123 215h92l-82 -215q4 -1 10 -3t22 -10.5t28 -20t22 -32.5t10 -47 q0 -54 -39.5 -93.5t-93.5 -39.5t-93.5 39.5t-39.5 93.5z" />
<glyph unicode="&#x201d;" horiz-adv-x="757" d="M72 1260q0 54 39.5 93.5t93.5 39.5t93.5 -39.5t39.5 -93.5q0 -23 -10 -51t-20 -45l-11 -17l-123 -215h-92l82 215q-4 1 -10 3t-22 10.5t-28 20t-22 32.5t-10 47zM420 1260q0 54 39.5 93.5t93.5 39.5t93.5 -39.5t39.5 -93.5q0 -23 -10 -51t-20 -45l-11 -17l-123 -215h-92 l82 215q-4 1 -10 3t-22 10.5t-28 20t-22 32.5t-10 47z" />
<glyph unicode="&#x201e;" horiz-adv-x="757" d="M72 113q0 54 39.5 93.5t93.5 39.5t93.5 -39.5t39.5 -93.5q0 -23 -10 -51t-20 -45l-11 -17l-123 -215h-92l82 215q-4 1 -10 3t-22 10.5t-28 20t-22 32.5t-10 47zM420 113q0 54 39.5 93.5t93.5 39.5t93.5 -39.5t39.5 -93.5q0 -23 -10 -51t-20 -45l-11 -17l-123 -215h-92 l82 215q-4 1 -10 3t-22 10.5t-28 20t-22 32.5t-10 47z" />
<glyph unicode="&#x2022;" horiz-adv-x="634" d="M133 522q0 77 54 131t130 54q77 0 131 -54.5t54 -130.5t-54 -130t-131 -54t-130.5 54t-53.5 130z" />
<glyph unicode="&#x2026;" horiz-adv-x="1269" d="M72 113q0 54 39.5 93.5t93.5 39.5t93.5 -39.5t39.5 -93.5t-39.5 -93.5t-93.5 -39.5t-93.5 39.5t-39.5 93.5zM502 113q0 54 39.5 93.5t93.5 39.5t93.5 -39.5t39.5 -93.5t-39.5 -93.5t-93.5 -39.5t-93.5 39.5t-39.5 93.5zM932 113q0 54 39.5 93.5t93.5 39.5t93.5 -39.5 t39.5 -93.5t-39.5 -93.5t-93.5 -39.5t-93.5 39.5t-39.5 93.5z" />
<glyph unicode="&#x202f;" horiz-adv-x="397" />
<glyph unicode="&#x2039;" horiz-adv-x="645" d="M41 410l379 409l143 -153l-235 -246v-21l235 -245l-143 -154z" />
<glyph unicode="&#x203a;" horiz-adv-x="645" d="M82 154l235 245v21l-235 246l143 153l379 -409l-379 -410z" />
<glyph unicode="&#x205f;" horiz-adv-x="496" />
<glyph unicode="&#x20ac;" horiz-adv-x="1536" d="M51 451v184h123v123h-123v184h154q28 75 73 145.5t108.5 134t139 110.5t170 74.5t195.5 27.5q84 0 162 -18t135.5 -47t108 -64t84 -70t58 -64t35.5 -47l11 -18l-215 -123q-5 9 -15.5 24t-47 54t-77 68.5t-105.5 54t-134 24.5q-141 0 -249 -79.5t-161 -186.5h441v-184 h-492v-123h492v-184h-441q53 -107 161 -187t249 -80q74 0 142 26.5t113 64t79 75t49 64.5l16 26l215 -123q-4 -7 -11.5 -20t-35 -50.5t-59.5 -71t-85.5 -75t-112.5 -71t-140.5 -50t-169.5 -20.5q-101 0 -195.5 27.5t-170 74.5t-139 110.5t-108.5 134t-73 145.5h-154z" />
<glyph unicode="&#x2122;" horiz-adv-x="1382" d="M41 1229v164h512v-164h-164v-410h-184v410h-164zM635 819v594h41l287 -287l286 287h41v-594h-184v205h-10l-133 -133l-134 133h-10v-205h-184z" />
<glyph unicode="&#x25fc;" horiz-adv-x="839" d="M0 0v840h840v-840h-840z" />
</font>
</defs>
</svg>
